<svg width="290" height="68" viewBox="0 0 290 68" fill="none" xmlns="http://www.w3.org/2000/svg">
<path opacity="0.1" d="M187 12.5H75.5L8.5 59.4999" stroke="#323941" stroke-width="2" stroke-linecap="round" stroke-linejoin="round"/>
<path d="M188.951 12.644C188.951 11.582 188.069 10.7 187.007 10.7C185.945 10.7 185.063 11.582 185.063 12.644C185.063 13.688 185.945 14.57 187.007 14.57C188.069 14.57 188.951 13.688 188.951 12.644ZM207.368 17C209.564 17 210.842 15.686 210.842 13.76C210.842 12.32 209.78 11.006 208.502 10.808C209.6 10.574 210.608 9.566 210.608 8.054C210.608 6.254 209.33 4.994 207.242 4.994H201.896V17H207.368ZM206.99 10.196H203.39V6.326H206.99C208.34 6.326 209.06 7.19 209.06 8.27C209.06 9.368 208.34 10.196 206.99 10.196ZM207.062 15.668H203.39V11.528H207.062C208.538 11.528 209.294 12.5 209.294 13.598C209.294 14.876 208.466 15.668 207.062 15.668ZM214.513 17V10.844C214.909 10.142 216.043 9.458 216.871 9.458C217.087 9.458 217.249 9.476 217.411 9.512V8.126C216.223 8.126 215.215 8.792 214.513 9.71V8.306H213.163V17H214.513ZM225.89 17V11.024C225.89 8.918 224.36 8.09 222.524 8.09C221.102 8.09 219.986 8.558 219.05 9.53L219.68 10.466C220.454 9.638 221.3 9.26 222.344 9.26C223.604 9.26 224.54 9.926 224.54 11.096V12.662C223.838 11.852 222.848 11.474 221.66 11.474C220.184 11.474 218.618 12.392 218.618 14.336C218.618 16.226 220.184 17.216 221.66 17.216C222.83 17.216 223.82 16.802 224.54 16.01V17H225.89ZM222.146 16.244C220.886 16.244 220.004 15.452 220.004 14.354C220.004 13.238 220.886 12.446 222.146 12.446C223.1 12.446 224.018 12.806 224.54 13.526V15.164C224.018 15.884 223.1 16.244 222.146 16.244ZM236.246 17L232.376 12.248L236.228 8.306H234.518L229.946 12.932V4.994H228.596V17H229.946V14.516L231.386 13.094L234.518 17H236.246ZM241.713 17.216C243.135 17.216 244.305 16.748 245.169 15.884L244.521 15.002C243.837 15.704 242.829 16.1 241.839 16.1C239.967 16.1 238.815 14.732 238.707 13.094H245.745V12.752C245.745 10.142 244.197 8.09 241.569 8.09C239.085 8.09 237.285 10.124 237.285 12.644C237.285 15.362 239.139 17.216 241.713 17.216ZM244.413 12.104H238.707C238.779 10.772 239.697 9.206 241.551 9.206C243.531 9.206 244.395 10.808 244.413 12.104ZM259.701 17V15.668H254.121V4.994H252.627V17H259.701ZM262.414 7.064C262.918 7.064 263.332 6.668 263.332 6.164C263.332 5.66 262.918 5.246 262.414 5.246C261.928 5.246 261.514 5.66 261.514 6.164C261.514 6.668 261.928 7.064 262.414 7.064ZM263.098 17V8.306H261.748V17H263.098ZM269.283 20.528C271.407 20.528 273.423 19.628 273.423 16.748V8.306H272.073V9.62C271.371 8.666 270.327 8.09 269.157 8.09C266.871 8.09 265.287 9.818 265.287 12.608C265.287 15.416 266.889 17.108 269.157 17.108C270.381 17.108 271.443 16.442 272.073 15.56V16.802C272.073 18.71 270.723 19.412 269.283 19.412C268.041 19.412 267.177 19.088 266.457 18.224L265.773 19.232C266.799 20.24 267.807 20.528 269.283 20.528ZM269.481 15.92C267.735 15.92 266.691 14.516 266.691 12.608C266.691 10.682 267.735 9.296 269.481 9.296C270.561 9.296 271.605 9.944 272.073 10.7V14.498C271.605 15.254 270.561 15.92 269.481 15.92ZM283.363 17V10.862C283.363 8.972 282.409 8.09 280.591 8.09C279.277 8.09 278.089 8.846 277.477 9.566V4.994H276.127V17H277.477V10.646C277.999 9.944 279.007 9.296 280.051 9.296C281.221 9.296 282.013 9.746 282.013 11.276V17H283.363ZM288.255 17.216C289.047 17.216 289.533 16.982 289.875 16.658L289.479 15.65C289.299 15.848 288.939 16.01 288.561 16.01C287.967 16.01 287.679 15.542 287.679 14.894V9.494H289.443V8.306H287.679V5.93H286.329V8.306H284.889V9.494H286.329V15.182C286.329 16.478 286.977 17.216 288.255 17.216Z" fill="#999999"/>
<circle cx="7.5" cy="61" r="6" fill="white" stroke="#E31E24" stroke-width="2"/>
</svg>
