<svg width="589" height="45" viewBox="0 0 589 45" fill="none" xmlns="http://www.w3.org/2000/svg">
<path opacity="0.1" d="M535.5 12.5H55L10 37.4997" stroke="#323941" stroke-width="2" stroke-linecap="round" stroke-linejoin="round"/>
<path d="M537.24 12.644C537.24 11.582 536.358 10.7 535.296 10.7C534.234 10.7 533.352 11.582 533.352 12.644C533.352 13.688 534.234 14.57 535.296 14.57C536.358 14.57 537.24 13.688 537.24 12.644ZM554.073 17.216C557.313 17.216 558.501 15.434 558.501 13.688C558.501 9.206 551.391 10.754 551.391 8.054C551.391 6.92 552.417 6.146 553.857 6.146C555.171 6.146 556.431 6.596 557.331 7.586L558.231 6.488C557.223 5.426 555.801 4.814 553.965 4.814C551.607 4.814 549.843 6.164 549.843 8.144C549.843 12.428 556.953 10.718 556.953 13.814C556.953 14.732 556.269 15.884 554.127 15.884C552.435 15.884 551.139 15.056 550.347 14.174L549.465 15.308C550.455 16.424 551.985 17.216 554.073 17.216ZM562.575 17.216C563.367 17.216 563.853 16.982 564.195 16.658L563.799 15.65C563.619 15.848 563.259 16.01 562.881 16.01C562.287 16.01 561.999 15.542 561.999 14.894V9.494H563.763V8.306H561.999V5.93H560.649V8.306H559.209V9.494H560.649V15.182C560.649 16.478 561.297 17.216 562.575 17.216ZM569.594 17.216C571.016 17.216 572.186 16.748 573.05 15.884L572.402 15.002C571.718 15.704 570.71 16.1 569.72 16.1C567.848 16.1 566.696 14.732 566.588 13.094H573.626V12.752C573.626 10.142 572.078 8.09 569.45 8.09C566.966 8.09 565.166 10.124 565.166 12.644C565.166 15.362 567.02 17.216 569.594 17.216ZM572.294 12.104H566.588C566.66 10.772 567.578 9.206 569.432 9.206C571.412 9.206 572.276 10.808 572.294 12.104ZM587.657 17V10.718C587.657 8.972 586.811 8.09 585.227 8.09C583.967 8.09 582.797 8.918 582.311 9.71C582.059 8.81 581.303 8.09 579.971 8.09C578.693 8.09 577.523 9.008 577.163 9.566V8.306H575.813V17H577.163V10.646C577.631 9.944 578.567 9.296 579.449 9.296C580.583 9.296 581.051 9.998 581.051 11.096V17H582.401V10.628C582.851 9.944 583.805 9.296 584.705 9.296C585.821 9.296 586.307 9.998 586.307 11.096V17H587.657Z" fill="#999999"/>
<circle cx="7.5" cy="38" r="6" fill="white" stroke="#E31E24" stroke-width="2"/>
</svg>
