<svg width="344" height="113" viewBox="0 0 344 113" fill="none" xmlns="http://www.w3.org/2000/svg">
<path opacity="0.1" d="M254.5 12.5H151.5L115.5 12L7 105.5" stroke="#323941" stroke-width="2" stroke-linecap="round" stroke-linejoin="round"/>
<path d="M256.029 12.644C256.029 11.582 255.147 10.7 254.085 10.7C253.023 10.7 252.141 11.582 252.141 12.644C252.141 13.688 253.023 14.57 254.085 14.57C255.147 14.57 256.029 13.688 256.029 12.644ZM278.082 17L272.646 10.7L277.65 4.994H275.778L270.468 11.204V4.994H268.974V17H270.468V12.968L271.674 11.6L276.228 17H278.082ZM280.397 7.064C280.901 7.064 281.315 6.668 281.315 6.164C281.315 5.66 280.901 5.246 280.397 5.246C279.911 5.246 279.497 5.66 279.497 6.164C279.497 6.668 279.911 7.064 280.397 7.064ZM281.081 17V8.306H279.731V17H281.081ZM287.608 17.216C289.192 17.216 290.128 16.568 290.794 15.704L289.894 14.876C289.318 15.65 288.58 16.01 287.68 16.01C285.826 16.01 284.674 14.57 284.674 12.644C284.674 10.718 285.826 9.296 287.68 9.296C288.58 9.296 289.318 9.638 289.894 10.43L290.794 9.602C290.128 8.738 289.192 8.09 287.608 8.09C285.016 8.09 283.27 10.07 283.27 12.644C283.27 15.236 285.016 17.216 287.608 17.216ZM300.336 17L296.466 12.248L300.318 8.306H298.608L294.036 12.932V4.994H292.686V17H294.036V14.516L295.476 13.094L298.608 17H300.336ZM304.686 17.216C306.936 17.216 308.106 16.046 308.106 14.588C308.106 11.204 302.724 12.464 302.724 10.556C302.724 9.782 303.462 9.188 304.65 9.188C305.766 9.188 306.72 9.656 307.242 10.286L307.872 9.35C307.17 8.648 306.126 8.09 304.65 8.09C302.58 8.09 301.41 9.242 301.41 10.592C301.41 13.814 306.792 12.518 306.792 14.624C306.792 15.488 306.072 16.118 304.74 16.118C303.552 16.118 302.454 15.542 301.878 14.876L301.176 15.848C302.058 16.784 303.264 17.216 304.686 17.216ZM312.495 17.216C313.287 17.216 313.773 16.982 314.115 16.658L313.719 15.65C313.539 15.848 313.179 16.01 312.801 16.01C312.207 16.01 311.919 15.542 311.919 14.894V9.494H313.683V8.306H311.919V5.93H310.569V8.306H309.129V9.494H310.569V15.182C310.569 16.478 311.217 17.216 312.495 17.216ZM322.376 17V11.024C322.376 8.918 320.846 8.09 319.01 8.09C317.588 8.09 316.472 8.558 315.536 9.53L316.166 10.466C316.94 9.638 317.786 9.26 318.83 9.26C320.09 9.26 321.026 9.926 321.026 11.096V12.662C320.324 11.852 319.334 11.474 318.146 11.474C316.67 11.474 315.104 12.392 315.104 14.336C315.104 16.226 316.67 17.216 318.146 17.216C319.316 17.216 320.306 16.802 321.026 16.01V17H322.376ZM318.632 16.244C317.372 16.244 316.49 15.452 316.49 14.354C316.49 13.238 317.372 12.446 318.632 12.446C319.586 12.446 320.504 12.806 321.026 13.526V15.164C320.504 15.884 319.586 16.244 318.632 16.244ZM332.3 17V10.898C332.3 9.008 331.346 8.09 329.528 8.09C328.232 8.09 327.044 8.846 326.432 9.566V8.306H325.082V17H326.432V10.646C326.936 9.944 327.944 9.296 329.006 9.296C330.176 9.296 330.95 9.782 330.95 11.312V17H332.3ZM342.646 17V4.994H341.296V9.62C340.594 8.666 339.532 8.09 338.362 8.09C336.076 8.09 334.492 9.89 334.492 12.662C334.492 15.488 336.094 17.216 338.362 17.216C339.586 17.216 340.648 16.586 341.296 15.704V17H342.646ZM338.686 16.01C336.94 16.01 335.896 14.588 335.896 12.662C335.896 10.736 336.94 9.296 338.686 9.296C339.766 9.296 340.81 9.944 341.296 10.7V14.642C340.81 15.398 339.766 16.01 338.686 16.01Z" fill="#999999"/>
<circle cx="7" cy="106" r="6" fill="white" stroke="#E31E24" stroke-width="2"/>
</svg>
