<svg width="501" height="258" viewBox="0 0 501 258" fill="none" xmlns="http://www.w3.org/2000/svg">
<path opacity="0.1" d="M319.5 12.5H235.5L8.5 250" stroke="#323941" stroke-width="2" stroke-linecap="round" stroke-linejoin="round"/>
<path d="M320.603 12.644C320.603 11.582 319.721 10.7 318.659 10.7C317.597 10.7 316.715 11.582 316.715 12.644C316.715 13.688 317.597 14.57 318.659 14.57C319.721 14.57 320.603 13.688 320.603 12.644ZM339.021 17C341.217 17 342.495 15.686 342.495 13.76C342.495 12.32 341.433 11.006 340.155 10.808C341.253 10.574 342.261 9.566 342.261 8.054C342.261 6.254 340.983 4.994 338.895 4.994H333.549V17H339.021ZM338.643 10.196H335.043V6.326H338.643C339.993 6.326 340.713 7.19 340.713 8.27C340.713 9.368 339.993 10.196 338.643 10.196ZM338.715 15.668H335.043V11.528H338.715C340.191 11.528 340.947 12.5 340.947 13.598C340.947 14.876 340.119 15.668 338.715 15.668ZM351.601 17V11.024C351.601 8.918 350.071 8.09 348.235 8.09C346.813 8.09 345.697 8.558 344.761 9.53L345.391 10.466C346.165 9.638 347.011 9.26 348.055 9.26C349.315 9.26 350.251 9.926 350.251 11.096V12.662C349.549 11.852 348.559 11.474 347.371 11.474C345.895 11.474 344.329 12.392 344.329 14.336C344.329 16.226 345.895 17.216 347.371 17.216C348.541 17.216 349.531 16.802 350.251 16.01V17H351.601ZM347.857 16.244C346.597 16.244 345.715 15.452 345.715 14.354C345.715 13.238 346.597 12.446 347.857 12.446C348.811 12.446 349.729 12.806 350.251 13.526V15.164C349.729 15.884 348.811 16.244 347.857 16.244ZM356.503 17.216C357.295 17.216 357.781 16.982 358.123 16.658L357.727 15.65C357.547 15.848 357.187 16.01 356.809 16.01C356.215 16.01 355.927 15.542 355.927 14.894V9.494H357.691V8.306H355.927V5.93H354.577V8.306H353.137V9.494H354.577V15.182C354.577 16.478 355.225 17.216 356.503 17.216ZM361.794 17.216C362.586 17.216 363.072 16.982 363.414 16.658L363.018 15.65C362.838 15.848 362.478 16.01 362.1 16.01C361.506 16.01 361.218 15.542 361.218 14.894V9.494H362.982V8.306H361.218V5.93H359.868V8.306H358.428V9.494H359.868V15.182C359.868 16.478 360.516 17.216 361.794 17.216ZM368.813 17.216C370.235 17.216 371.405 16.748 372.269 15.884L371.621 15.002C370.937 15.704 369.929 16.1 368.939 16.1C367.067 16.1 365.915 14.732 365.807 13.094H372.845V12.752C372.845 10.142 371.297 8.09 368.669 8.09C366.185 8.09 364.385 10.124 364.385 12.644C364.385 15.362 366.239 17.216 368.813 17.216ZM371.513 12.104H365.807C365.879 10.772 366.797 9.206 368.651 9.206C370.631 9.206 371.495 10.808 371.513 12.104ZM376.382 17V10.844C376.778 10.142 377.912 9.458 378.74 9.458C378.956 9.458 379.118 9.476 379.28 9.512V8.126C378.092 8.126 377.084 8.792 376.382 9.71V8.306H375.032V17H376.382ZM380.487 20.402C380.739 20.474 381.189 20.528 381.477 20.528C382.629 20.51 383.511 20.024 384.033 18.764L388.389 8.306H386.913L384.033 15.434L381.135 8.306H379.677L383.313 17.09L382.737 18.404C382.431 19.124 382.035 19.322 381.441 19.322C381.225 19.322 380.901 19.268 380.703 19.178L380.487 20.402ZM400.18 17.216C402.304 17.216 403.744 16.208 404.752 14.84L403.474 14.138C402.79 15.164 401.548 15.884 400.18 15.884C397.552 15.884 395.554 13.85 395.554 11.006C395.554 8.144 397.552 6.128 400.18 6.128C401.548 6.128 402.79 6.866 403.474 7.874L404.734 7.172C403.78 5.822 402.304 4.796 400.18 4.796C396.724 4.796 394.006 7.316 394.006 11.006C394.006 14.696 396.724 17.216 400.18 17.216ZM410.4 17.216C413.046 17.216 414.702 15.164 414.702 12.644C414.702 10.124 413.046 8.09 410.4 8.09C407.754 8.09 406.098 10.124 406.098 12.644C406.098 15.164 407.754 17.216 410.4 17.216ZM410.4 16.01C408.546 16.01 407.502 14.426 407.502 12.644C407.502 10.88 408.546 9.296 410.4 9.296C412.254 9.296 413.28 10.88 413.28 12.644C413.28 14.426 412.254 16.01 410.4 16.01ZM428.747 17V10.718C428.747 8.972 427.901 8.09 426.317 8.09C425.057 8.09 423.887 8.918 423.401 9.71C423.149 8.81 422.393 8.09 421.061 8.09C419.783 8.09 418.613 9.008 418.253 9.566V8.306H416.903V17H418.253V10.646C418.721 9.944 419.657 9.296 420.539 9.296C421.673 9.296 422.141 9.998 422.141 11.096V17H423.491V10.628C423.941 9.944 424.895 9.296 425.795 9.296C426.911 9.296 427.397 9.998 427.397 11.096V17H428.747ZM435.724 17.216C438.01 17.216 439.594 15.452 439.594 12.644C439.594 9.818 438.01 8.09 435.724 8.09C434.5 8.09 433.42 8.72 432.79 9.602V8.306H431.44V20.312H432.79V15.686C433.492 16.658 434.536 17.216 435.724 17.216ZM435.382 16.01C434.32 16.01 433.258 15.362 432.79 14.606V10.682C433.258 9.926 434.32 9.296 435.382 9.296C437.128 9.296 438.172 10.718 438.172 12.644C438.172 14.57 437.128 16.01 435.382 16.01ZM448.527 17V11.024C448.527 8.918 446.997 8.09 445.161 8.09C443.739 8.09 442.623 8.558 441.687 9.53L442.317 10.466C443.091 9.638 443.937 9.26 444.981 9.26C446.241 9.26 447.177 9.926 447.177 11.096V12.662C446.475 11.852 445.485 11.474 444.297 11.474C442.821 11.474 441.255 12.392 441.255 14.336C441.255 16.226 442.821 17.216 444.297 17.216C445.467 17.216 446.457 16.802 447.177 16.01V17H448.527ZM444.783 16.244C443.523 16.244 442.641 15.452 442.641 14.354C442.641 13.238 443.523 12.446 444.783 12.446C445.737 12.446 446.655 12.806 447.177 13.526V15.164C446.655 15.884 445.737 16.244 444.783 16.244ZM452.583 17V10.844C452.979 10.142 454.113 9.458 454.941 9.458C455.157 9.458 455.319 9.476 455.481 9.512V8.126C454.293 8.126 453.285 8.792 452.583 9.71V8.306H451.233V17H452.583ZM459.37 17.216C460.162 17.216 460.648 16.982 460.99 16.658L460.594 15.65C460.414 15.848 460.054 16.01 459.676 16.01C459.082 16.01 458.794 15.542 458.794 14.894V9.494H460.558V8.306H458.794V5.93H457.444V8.306H456.004V9.494H457.444V15.182C457.444 16.478 458.092 17.216 459.37 17.216ZM474.309 17V10.718C474.309 8.972 473.463 8.09 471.879 8.09C470.619 8.09 469.449 8.918 468.963 9.71C468.711 8.81 467.955 8.09 466.623 8.09C465.345 8.09 464.175 9.008 463.815 9.566V8.306H462.465V17H463.815V10.646C464.283 9.944 465.219 9.296 466.101 9.296C467.235 9.296 467.703 9.998 467.703 11.096V17H469.053V10.628C469.503 9.944 470.457 9.296 471.357 9.296C472.473 9.296 472.959 9.998 472.959 11.096V17H474.309ZM480.926 17.216C482.348 17.216 483.518 16.748 484.382 15.884L483.734 15.002C483.05 15.704 482.042 16.1 481.052 16.1C479.18 16.1 478.028 14.732 477.92 13.094H484.958V12.752C484.958 10.142 483.41 8.09 480.782 8.09C478.298 8.09 476.498 10.124 476.498 12.644C476.498 15.362 478.352 17.216 480.926 17.216ZM483.626 12.104H477.92C477.992 10.772 478.91 9.206 480.764 9.206C482.744 9.206 483.608 10.808 483.626 12.104ZM494.363 17V10.898C494.363 9.008 493.409 8.09 491.591 8.09C490.295 8.09 489.107 8.846 488.495 9.566V8.306H487.145V17H488.495V10.646C488.999 9.944 490.007 9.296 491.069 9.296C492.239 9.296 493.013 9.782 493.013 11.312V17H494.363ZM499.255 17.216C500.047 17.216 500.533 16.982 500.875 16.658L500.479 15.65C500.299 15.848 499.939 16.01 499.561 16.01C498.967 16.01 498.679 15.542 498.679 14.894V9.494H500.443V8.306H498.679V5.93H497.329V8.306H495.889V9.494H497.329V15.182C497.329 16.478 497.977 17.216 499.255 17.216Z" fill="#999999"/>
<circle cx="7.5" cy="251" r="6" fill="white" stroke="#E31E24" stroke-width="2"/>
</svg>
