<svg width="320" height="83" viewBox="0 0 320 83" fill="none" xmlns="http://www.w3.org/2000/svg">
<path opacity="0.1" d="M8.5 76L88 12.5H209.5" stroke="#323941" stroke-width="2" stroke-linecap="round" stroke-linejoin="round"/>
<path d="M211.445 12.644C211.445 11.582 210.563 10.7 209.501 10.7C208.439 10.7 207.557 11.582 207.557 12.644C207.557 13.688 208.439 14.57 209.501 14.57C210.563 14.57 211.445 13.688 211.445 12.644ZM233.102 17L229.862 12.104C231.5 11.96 232.976 10.772 232.976 8.612C232.976 6.398 231.41 4.994 229.214 4.994H224.39V17H225.884V12.23H228.278L231.338 17H233.102ZM229.034 10.916H225.884V6.326H229.034C230.456 6.326 231.428 7.262 231.428 8.612C231.428 9.962 230.456 10.916 229.034 10.916ZM238.667 17.216C240.089 17.216 241.259 16.748 242.123 15.884L241.475 15.002C240.791 15.704 239.783 16.1 238.793 16.1C236.921 16.1 235.769 14.732 235.661 13.094H242.699V12.752C242.699 10.142 241.151 8.09 238.523 8.09C236.039 8.09 234.239 10.124 234.239 12.644C234.239 15.362 236.093 17.216 238.667 17.216ZM241.367 12.104H235.661C235.733 10.772 236.651 9.206 238.505 9.206C240.485 9.206 241.349 10.808 241.367 12.104ZM251.671 17V11.024C251.671 8.918 250.141 8.09 248.305 8.09C246.883 8.09 245.767 8.558 244.831 9.53L245.461 10.466C246.235 9.638 247.081 9.26 248.125 9.26C249.385 9.26 250.321 9.926 250.321 11.096V12.662C249.619 11.852 248.629 11.474 247.441 11.474C245.965 11.474 244.399 12.392 244.399 14.336C244.399 16.226 245.965 17.216 247.441 17.216C248.611 17.216 249.601 16.802 250.321 16.01V17H251.671ZM247.927 16.244C246.667 16.244 245.785 15.452 245.785 14.354C245.785 13.238 246.667 12.446 247.927 12.446C248.881 12.446 249.799 12.806 250.321 13.526V15.164C249.799 15.884 248.881 16.244 247.927 16.244ZM255.727 17V10.844C256.123 10.142 257.257 9.458 258.085 9.458C258.301 9.458 258.463 9.476 258.625 9.512V8.126C257.437 8.126 256.429 8.792 255.727 9.71V8.306H254.377V17H255.727ZM266.507 17V11.528H272.753V10.196H266.507V6.326H272.879V4.994H265.013V17H266.507ZM278.78 17.216C280.202 17.216 281.372 16.748 282.236 15.884L281.588 15.002C280.904 15.704 279.896 16.1 278.906 16.1C277.034 16.1 275.882 14.732 275.774 13.094H282.812V12.752C282.812 10.142 281.264 8.09 278.636 8.09C276.152 8.09 274.352 10.124 274.352 12.644C274.352 15.362 276.206 17.216 278.78 17.216ZM281.48 12.104H275.774C275.846 10.772 276.764 9.206 278.618 9.206C280.598 9.206 281.462 10.808 281.48 12.104ZM292.216 17V10.898C292.216 9.008 291.262 8.09 289.444 8.09C288.148 8.09 286.96 8.846 286.348 9.566V8.306H284.998V17H286.348V10.646C286.852 9.944 287.86 9.296 288.922 9.296C290.092 9.296 290.866 9.782 290.866 11.312V17H292.216ZM302.562 17V4.994H301.213V9.62C300.511 8.666 299.449 8.09 298.279 8.09C295.993 8.09 294.409 9.89 294.409 12.662C294.409 15.488 296.011 17.216 298.279 17.216C299.503 17.216 300.565 16.586 301.213 15.704V17H302.562ZM298.603 16.01C296.857 16.01 295.812 14.588 295.812 12.662C295.812 10.736 296.857 9.296 298.603 9.296C299.683 9.296 300.727 9.944 301.213 10.7V14.642C300.727 15.398 299.683 16.01 298.603 16.01ZM309.19 17.216C310.612 17.216 311.782 16.748 312.646 15.884L311.998 15.002C311.314 15.704 310.306 16.1 309.316 16.1C307.444 16.1 306.292 14.732 306.184 13.094H313.222V12.752C313.222 10.142 311.674 8.09 309.046 8.09C306.562 8.09 304.762 10.124 304.762 12.644C304.762 15.362 306.616 17.216 309.19 17.216ZM311.89 12.104H306.184C306.256 10.772 307.174 9.206 309.028 9.206C311.008 9.206 311.872 10.808 311.89 12.104ZM316.759 17V10.844C317.155 10.142 318.289 9.458 319.117 9.458C319.333 9.458 319.495 9.476 319.657 9.512V8.126C318.469 8.126 317.461 8.792 316.759 9.71V8.306H315.409V17H316.759Z" fill="#999999"/>
<circle cx="7.5" cy="76" r="6" fill="white" stroke="#E31E24" stroke-width="2"/>
</svg>
