<svg width="436" height="190" viewBox="0 0 436 190" fill="none" xmlns="http://www.w3.org/2000/svg">
<path opacity="0.1" d="M274.5 12.5H176.5L7.5 182" stroke="#323941" stroke-width="2" stroke-linecap="round" stroke-linejoin="round"/>
<path d="M276.503 12.644C276.503 11.582 275.621 10.7 274.559 10.7C273.497 10.7 272.615 11.582 272.615 12.644C272.615 13.688 273.497 14.57 274.559 14.57C275.621 14.57 276.503 13.688 276.503 12.644ZM299.457 17V4.994H289.449V17H290.943V6.326H297.963V17H299.457ZM306.007 17.216C308.653 17.216 310.309 15.164 310.309 12.644C310.309 10.124 308.653 8.09 306.007 8.09C303.361 8.09 301.705 10.124 301.705 12.644C301.705 15.164 303.361 17.216 306.007 17.216ZM306.007 16.01C304.153 16.01 303.109 14.426 303.109 12.644C303.109 10.88 304.153 9.296 306.007 9.296C307.861 9.296 308.887 10.88 308.887 12.644C308.887 14.426 307.861 16.01 306.007 16.01ZM316.794 17.216C319.08 17.216 320.664 15.452 320.664 12.644C320.664 9.818 319.08 8.09 316.794 8.09C315.57 8.09 314.49 8.72 313.86 9.602V8.306H312.51V20.312H313.86V15.686C314.562 16.658 315.606 17.216 316.794 17.216ZM316.452 16.01C315.39 16.01 314.328 15.362 313.86 14.606V10.682C314.328 9.926 315.39 9.296 316.452 9.296C318.198 9.296 319.242 10.718 319.242 12.644C319.242 14.57 318.198 16.01 316.452 16.01ZM325.745 17V9.494H328.283V8.306H321.875V9.494H324.395V17H325.745ZM333.668 19.214H335.018V17H341.588V19.214H342.938V15.812H341.93V8.306H335.882L335.324 12.59C334.982 15.164 334.478 15.74 333.668 15.884V19.214ZM337.07 9.494H340.58V15.812H335.414C336.044 15.308 336.458 14.39 336.674 12.752L337.07 9.494ZM343.758 17.216C345.432 17.216 346.368 15.992 346.764 12.752L347.16 9.494H350.67V17H352.02V8.306H345.972L345.414 12.59C345.072 15.164 344.568 16.1 343.758 16.1V17.216ZM356.011 17L358.135 13.634H360.511V17H361.861V8.306H357.271C355.507 8.306 354.517 9.494 354.517 10.97C354.517 12.428 355.453 13.418 356.749 13.58L354.427 17H356.011ZM357.415 12.446C356.425 12.446 355.903 11.834 355.903 10.97C355.903 10.106 356.461 9.494 357.415 9.494H360.511V12.446H357.415ZM372.278 17.216C374.78 17.216 376.256 16.136 376.256 14.678C376.256 13.238 374.744 12.626 373.736 12.554C374.762 12.428 376.076 11.726 376.076 10.43C376.076 8.954 374.42 8.09 372.08 8.108C370.496 8.108 369.326 8.666 368.516 9.494L369.218 10.322C369.956 9.566 370.91 9.206 372.134 9.206C373.574 9.206 374.672 9.764 374.672 10.592C374.672 11.582 373.538 12.05 372.098 12.05H370.154V13.148H372.098C373.628 13.148 374.834 13.508 374.834 14.588C374.834 15.506 373.826 16.1 372.278 16.1C370.982 16.1 369.83 15.704 369.02 14.93L368.354 15.794C369.218 16.658 370.532 17.216 372.278 17.216ZM385.232 17V11.024C385.232 8.918 383.702 8.09 381.866 8.09C380.444 8.09 379.328 8.558 378.392 9.53L379.022 10.466C379.796 9.638 380.642 9.26 381.686 9.26C382.946 9.26 383.882 9.926 383.882 11.096V12.662C383.18 11.852 382.19 11.474 381.002 11.474C379.526 11.474 377.96 12.392 377.96 14.336C377.96 16.226 379.526 17.216 381.002 17.216C382.172 17.216 383.162 16.802 383.882 16.01V17H385.232ZM381.488 16.244C380.228 16.244 379.346 15.452 379.346 14.354C379.346 13.238 380.228 12.446 381.488 12.446C382.442 12.446 383.36 12.806 383.882 13.526V15.164C383.36 15.884 382.442 16.244 381.488 16.244ZM392.222 17.216C394.508 17.216 396.092 15.452 396.092 12.644C396.092 9.818 394.508 8.09 392.222 8.09C390.998 8.09 389.918 8.72 389.288 9.602V8.306H387.938V20.312H389.288V15.686C389.99 16.658 391.034 17.216 392.222 17.216ZM391.88 16.01C390.818 16.01 389.756 15.362 389.288 14.606V10.682C389.756 9.926 390.818 9.296 391.88 9.296C393.626 9.296 394.67 10.718 394.67 12.644C394.67 14.57 393.626 16.01 391.88 16.01ZM399.535 17L401.659 13.634H404.035V17H405.385V8.306H400.795C399.031 8.306 398.041 9.494 398.041 10.97C398.041 12.428 398.977 13.418 400.273 13.58L397.951 17H399.535ZM400.939 12.446C399.949 12.446 399.427 11.834 399.427 10.97C399.427 10.106 399.985 9.494 400.939 9.494H404.035V12.446H400.939ZM407.056 19.214H408.406V17H414.976V19.214H416.326V15.812H415.318V8.306H409.27L408.712 12.59C408.37 15.164 407.866 15.74 407.056 15.884V19.214ZM410.458 9.494H413.968V15.812H408.802C409.432 15.308 409.846 14.39 410.062 12.752L410.458 9.494ZM425.822 17L421.952 12.248L425.804 8.306H424.094L419.522 12.932V8.306H418.172V17H419.522V14.516L420.962 13.094L424.094 17H425.822ZM428.714 17L433.304 10.232V17H434.654V8.306H433.322L428.768 14.948V8.306H427.418V17H428.714Z" fill="#999999"/>
<circle cx="7.5" cy="183" r="6" fill="white" stroke="#E31E24" stroke-width="2"/>
</svg>
