<svg width="565" height="73" viewBox="0 0 565 73" fill="none" xmlns="http://www.w3.org/2000/svg">
<path opacity="0.1" d="M337.5 63.5H141L82 6.5H8" stroke="#323941" stroke-width="2" stroke-linecap="round" stroke-linejoin="round"/>
<path d="M339.199 63.644C339.199 62.582 338.317 61.7 337.255 61.7C336.193 61.7 335.311 62.582 335.311 63.644C335.311 64.688 336.193 65.57 337.255 65.57C338.317 65.57 339.199 64.688 339.199 63.644ZM356.248 68C359.974 68 362.404 65.426 362.404 62.006C362.404 58.604 359.974 55.994 356.248 55.994H352.144V68H356.248ZM356.248 66.668H353.638V57.326H356.248C359.218 57.326 360.856 59.414 360.856 62.006C360.856 64.58 359.164 66.668 356.248 66.668ZM371.48 68V62.024C371.48 59.918 369.95 59.09 368.114 59.09C366.692 59.09 365.576 59.558 364.64 60.53L365.27 61.466C366.044 60.638 366.89 60.26 367.934 60.26C369.194 60.26 370.13 60.926 370.13 62.096V63.662C369.428 62.852 368.438 62.474 367.25 62.474C365.774 62.474 364.208 63.392 364.208 65.336C364.208 67.226 365.774 68.216 367.25 68.216C368.42 68.216 369.41 67.802 370.13 67.01V68H371.48ZM367.736 67.244C366.476 67.244 365.594 66.452 365.594 65.354C365.594 64.238 366.476 63.446 367.736 63.446C368.69 63.446 369.608 63.806 370.13 64.526V66.164C369.608 66.884 368.69 67.244 367.736 67.244ZM376.94 68.216C379.19 68.216 380.36 67.046 380.36 65.588C380.36 62.204 374.978 63.464 374.978 61.556C374.978 60.782 375.716 60.188 376.904 60.188C378.02 60.188 378.974 60.656 379.496 61.286L380.126 60.35C379.424 59.648 378.38 59.09 376.904 59.09C374.834 59.09 373.664 60.242 373.664 61.592C373.664 64.814 379.046 63.518 379.046 65.624C379.046 66.488 378.326 67.118 376.994 67.118C375.806 67.118 374.708 66.542 374.132 65.876L373.43 66.848C374.312 67.784 375.518 68.216 376.94 68.216ZM389.789 68V61.862C389.789 59.972 388.835 59.09 387.017 59.09C385.703 59.09 384.515 59.846 383.903 60.566V55.994H382.553V68H383.903V61.646C384.425 60.944 385.433 60.296 386.477 60.296C387.647 60.296 388.439 60.746 388.439 62.276V68H389.789ZM393.835 65.642V61.7C394.303 60.944 395.365 60.296 396.427 60.296C398.191 60.296 399.235 61.736 399.235 63.662C399.235 65.588 398.191 67.01 396.427 67.01C395.365 67.01 394.303 66.398 393.835 65.642ZM393.835 68V66.704C394.483 67.586 395.545 68.216 396.769 68.216C399.037 68.216 400.639 66.488 400.639 63.662C400.639 60.89 399.037 59.09 396.769 59.09C395.581 59.09 394.537 59.666 393.835 60.62V55.994H392.485V68H393.835ZM406.636 68.216C409.282 68.216 410.938 66.164 410.938 63.644C410.938 61.124 409.282 59.09 406.636 59.09C403.99 59.09 402.334 61.124 402.334 63.644C402.334 66.164 403.99 68.216 406.636 68.216ZM406.636 67.01C404.782 67.01 403.738 65.426 403.738 63.644C403.738 61.88 404.782 60.296 406.636 60.296C408.49 60.296 409.516 61.88 409.516 63.644C409.516 65.426 408.49 67.01 406.636 67.01ZM419.925 68V62.024C419.925 59.918 418.395 59.09 416.559 59.09C415.137 59.09 414.021 59.558 413.085 60.53L413.715 61.466C414.489 60.638 415.335 60.26 416.379 60.26C417.639 60.26 418.575 60.926 418.575 62.096V63.662C417.873 62.852 416.883 62.474 415.695 62.474C414.219 62.474 412.653 63.392 412.653 65.336C412.653 67.226 414.219 68.216 415.695 68.216C416.865 68.216 417.855 67.802 418.575 67.01V68H419.925ZM416.181 67.244C414.921 67.244 414.039 66.452 414.039 65.354C414.039 64.238 414.921 63.446 416.181 63.446C417.135 63.446 418.053 63.806 418.575 64.526V66.164C418.053 66.884 417.135 67.244 416.181 67.244ZM423.981 68V61.844C424.377 61.142 425.511 60.458 426.339 60.458C426.555 60.458 426.717 60.476 426.879 60.512V59.126C425.691 59.126 424.683 59.792 423.981 60.71V59.306H422.631V68H423.981ZM436.223 68V55.994H434.873V60.62C434.171 59.666 433.109 59.09 431.939 59.09C429.653 59.09 428.069 60.89 428.069 63.662C428.069 66.488 429.671 68.216 431.939 68.216C433.163 68.216 434.225 67.586 434.873 66.704V68H436.223ZM432.263 67.01C430.517 67.01 429.473 65.588 429.473 63.662C429.473 61.736 430.517 60.296 432.263 60.296C433.343 60.296 434.387 60.944 434.873 61.7V65.642C434.387 66.398 433.343 67.01 432.263 67.01ZM453.251 68C452.369 67.19 451.613 66.47 450.911 65.732C451.631 64.724 452.135 63.59 452.549 62.636L451.379 62.132C451.163 62.798 450.749 63.878 450.083 64.868C449.615 64.364 449.147 63.842 448.661 63.266C448.265 62.816 447.761 62.222 447.275 61.556C448.805 60.764 450.335 59.972 450.335 58.172C450.335 56.66 449.183 55.814 447.617 55.814C445.925 55.814 444.593 57.002 444.593 58.604C444.593 59.45 444.971 60.386 445.511 61.304C444.125 62.042 442.865 62.996 442.865 64.868C442.865 67.1 444.539 68.216 446.609 68.216C448.067 68.216 449.183 67.622 450.065 66.74C450.551 67.244 451.019 67.694 451.379 68H453.251ZM446.735 67.1C445.475 67.1 444.323 66.272 444.323 64.778C444.323 63.536 445.097 62.798 446.087 62.186C446.573 62.87 447.095 63.518 447.599 64.094C447.941 64.508 448.571 65.192 449.255 65.912C448.571 66.596 447.725 67.1 446.735 67.1ZM445.997 58.622C445.997 57.596 446.753 56.876 447.671 56.876C448.481 56.876 449.093 57.344 449.093 58.226C449.093 59.414 447.995 60.062 446.717 60.692C446.303 59.99 445.997 59.252 445.997 58.622ZM461.287 68V63.23H464.617C466.993 63.23 468.379 61.574 468.379 59.612C468.379 57.65 467.029 55.994 464.617 55.994H459.793V68H461.287ZM464.437 61.898H461.287V57.326H464.437C465.859 57.326 466.831 58.262 466.831 59.612C466.831 60.962 465.859 61.898 464.437 61.898ZM473.873 68.216C476.519 68.216 478.175 66.164 478.175 63.644C478.175 61.124 476.519 59.09 473.873 59.09C471.227 59.09 469.571 61.124 469.571 63.644C469.571 66.164 471.227 68.216 473.873 68.216ZM473.873 67.01C472.019 67.01 470.975 65.426 470.975 63.644C470.975 61.88 472.019 60.296 473.873 60.296C475.727 60.296 476.753 61.88 476.753 63.644C476.753 65.426 475.727 67.01 473.873 67.01ZM489.249 68L492.021 59.306H490.617L488.493 66.236L486.207 59.306H485.055L482.769 66.236L480.645 59.306H479.241L482.013 68H483.363L485.631 61.016L487.899 68H489.249ZM497.518 68.216C498.94 68.216 500.11 67.748 500.974 66.884L500.326 66.002C499.642 66.704 498.634 67.1 497.644 67.1C495.772 67.1 494.62 65.732 494.512 64.094H501.55V63.752C501.55 61.142 500.002 59.09 497.374 59.09C494.89 59.09 493.09 61.124 493.09 63.644C493.09 66.362 494.944 68.216 497.518 68.216ZM500.218 63.104H494.512C494.584 61.772 495.502 60.206 497.356 60.206C499.336 60.206 500.2 61.808 500.218 63.104ZM505.087 68V61.844C505.483 61.142 506.617 60.458 507.445 60.458C507.661 60.458 507.823 60.476 507.985 60.512V59.126C506.797 59.126 505.789 59.792 505.087 60.71V59.306H503.737V68H505.087ZM519.845 68C522.041 68 523.319 66.686 523.319 64.76C523.319 63.32 522.257 62.006 520.979 61.808C522.077 61.574 523.085 60.566 523.085 59.054C523.085 57.254 521.807 55.994 519.719 55.994H514.373V68H519.845ZM519.467 61.196H515.867V57.326H519.467C520.817 57.326 521.537 58.19 521.537 59.27C521.537 60.368 520.817 61.196 519.467 61.196ZM519.539 66.668H515.867V62.528H519.539C521.015 62.528 521.771 63.5 521.771 64.598C521.771 65.876 520.943 66.668 519.539 66.668ZM532.857 68V59.306H531.507V65.696C531.003 66.398 529.995 67.01 528.933 67.01C527.763 67.01 526.989 66.56 526.989 65.03V59.306H525.639V65.444C525.639 67.334 526.593 68.216 528.411 68.216C529.707 68.216 530.841 67.532 531.507 66.776V68H532.857ZM537.749 68.216C538.541 68.216 539.027 67.982 539.369 67.658L538.973 66.65C538.793 66.848 538.433 67.01 538.055 67.01C537.461 67.01 537.173 66.542 537.173 65.894V60.494H538.937V59.306H537.173V56.93H535.823V59.306H534.383V60.494H535.823V66.182C535.823 67.478 536.471 68.216 537.749 68.216ZM543.04 68.216C543.832 68.216 544.318 67.982 544.66 67.658L544.264 66.65C544.084 66.848 543.724 67.01 543.346 67.01C542.752 67.01 542.464 66.542 542.464 65.894V60.494H544.228V59.306H542.464V56.93H541.114V59.306H539.674V60.494H541.114V66.182C541.114 67.478 541.762 68.216 543.04 68.216ZM549.933 68.216C552.579 68.216 554.235 66.164 554.235 63.644C554.235 61.124 552.579 59.09 549.933 59.09C547.287 59.09 545.631 61.124 545.631 63.644C545.631 66.164 547.287 68.216 549.933 68.216ZM549.933 67.01C548.079 67.01 547.035 65.426 547.035 63.644C547.035 61.88 548.079 60.296 549.933 60.296C551.787 60.296 552.813 61.88 552.813 63.644C552.813 65.426 551.787 67.01 549.933 67.01ZM563.654 68V61.898C563.654 60.008 562.7 59.09 560.882 59.09C559.586 59.09 558.398 59.846 557.786 60.566V59.306H556.436V68H557.786V61.646C558.29 60.944 559.298 60.296 560.36 60.296C561.53 60.296 562.304 60.782 562.304 62.312V68H563.654Z" fill="#999999"/>
<circle cx="7.5" cy="7" r="6" fill="white" stroke="#E31E24" stroke-width="2"/>
</svg>
