<svg width="422" height="204" viewBox="0 0 422 204" fill="none" xmlns="http://www.w3.org/2000/svg">
<path opacity="0.1" d="M314.5 12.5H192L7.5 197" stroke="#323941" stroke-width="2" stroke-linecap="round" stroke-linejoin="round"/>
<circle cx="7" cy="197" r="6" fill="white" stroke="#E31E24" stroke-width="2"/>
<path d="M315.941 12.644C315.941 11.582 315.059 10.7 313.997 10.7C312.935 10.7 312.053 11.582 312.053 12.644C312.053 13.688 312.935 14.57 313.997 14.57C315.059 14.57 315.941 13.688 315.941 12.644ZM334.574 17.216C336.698 17.216 338.138 16.208 339.146 14.84L337.868 14.138C337.184 15.164 335.942 15.884 334.574 15.884C331.946 15.884 329.948 13.85 329.948 11.006C329.948 8.144 331.946 6.128 334.574 6.128C335.942 6.128 337.184 6.866 337.868 7.874L339.128 7.172C338.174 5.822 336.698 4.796 334.574 4.796C331.118 4.796 328.4 7.316 328.4 11.006C328.4 14.696 331.118 17.216 334.574 17.216ZM348.232 17V10.862C348.232 8.972 347.278 8.09 345.46 8.09C344.146 8.09 342.958 8.846 342.346 9.566V4.994H340.996V17H342.346V10.646C342.868 9.944 343.876 9.296 344.92 9.296C346.09 9.296 346.882 9.746 346.882 11.276V17H348.232ZM357.714 17V11.024C357.714 8.918 356.184 8.09 354.348 8.09C352.926 8.09 351.81 8.558 350.874 9.53L351.504 10.466C352.278 9.638 353.124 9.26 354.168 9.26C355.428 9.26 356.364 9.926 356.364 11.096V12.662C355.662 11.852 354.672 11.474 353.484 11.474C352.008 11.474 350.442 12.392 350.442 14.336C350.442 16.226 352.008 17.216 353.484 17.216C354.654 17.216 355.644 16.802 356.364 16.01V17H357.714ZM353.97 16.244C352.71 16.244 351.828 15.452 351.828 14.354C351.828 13.238 352.71 12.446 353.97 12.446C354.924 12.446 355.842 12.806 356.364 13.526V15.164C355.842 15.884 354.924 16.244 353.97 16.244ZM361.77 17V10.844C362.166 10.142 363.3 9.458 364.128 9.458C364.344 9.458 364.506 9.476 364.668 9.512V8.126C363.48 8.126 362.472 8.792 361.77 9.71V8.306H360.42V17H361.77ZM369.854 20.528C371.978 20.528 373.994 19.628 373.994 16.748V8.306H372.644V9.62C371.942 8.666 370.898 8.09 369.728 8.09C367.442 8.09 365.858 9.818 365.858 12.608C365.858 15.416 367.46 17.108 369.728 17.108C370.952 17.108 372.014 16.442 372.644 15.56V16.802C372.644 18.71 371.294 19.412 369.854 19.412C368.612 19.412 367.748 19.088 367.028 18.224L366.344 19.232C367.37 20.24 368.378 20.528 369.854 20.528ZM370.052 15.92C368.306 15.92 367.262 14.516 367.262 12.608C367.262 10.682 368.306 9.296 370.052 9.296C371.132 9.296 372.176 9.944 372.644 10.7V14.498C372.176 15.254 371.132 15.92 370.052 15.92ZM380.622 17.216C382.044 17.216 383.214 16.748 384.078 15.884L383.43 15.002C382.746 15.704 381.738 16.1 380.748 16.1C378.876 16.1 377.724 14.732 377.616 13.094H384.654V12.752C384.654 10.142 383.106 8.09 380.478 8.09C377.994 8.09 376.194 10.124 376.194 12.644C376.194 15.362 378.048 17.216 380.622 17.216ZM383.322 12.104H377.616C377.688 10.772 378.606 9.206 380.46 9.206C382.44 9.206 383.304 10.808 383.322 12.104ZM393.029 17V12.23H396.359C398.735 12.23 400.121 10.574 400.121 8.612C400.121 6.65 398.771 4.994 396.359 4.994H391.535V17H393.029ZM396.179 10.898H393.029V6.326H396.179C397.601 6.326 398.573 7.262 398.573 8.612C398.573 9.962 397.601 10.898 396.179 10.898ZM405.615 17.216C408.261 17.216 409.917 15.164 409.917 12.644C409.917 10.124 408.261 8.09 405.615 8.09C402.969 8.09 401.313 10.124 401.313 12.644C401.313 15.164 402.969 17.216 405.615 17.216ZM405.615 16.01C403.761 16.01 402.717 14.426 402.717 12.644C402.717 10.88 403.761 9.296 405.615 9.296C407.469 9.296 408.495 10.88 408.495 12.644C408.495 14.426 407.469 16.01 405.615 16.01ZM413.468 17V10.844C413.864 10.142 414.998 9.458 415.826 9.458C416.042 9.458 416.204 9.476 416.366 9.512V8.126C415.178 8.126 414.17 8.792 413.468 9.71V8.306H412.118V17H413.468ZM420.255 17.216C421.047 17.216 421.533 16.982 421.875 16.658L421.479 15.65C421.299 15.848 420.939 16.01 420.561 16.01C419.967 16.01 419.679 15.542 419.679 14.894V9.494H421.443V8.306H419.679V5.93H418.329V8.306H416.889V9.494H418.329V15.182C418.329 16.478 418.977 17.216 420.255 17.216Z" fill="#999999"/>
</svg>
