<svg width="316" height="63" viewBox="0 0 316 63" fill="none" xmlns="http://www.w3.org/2000/svg">
<path opacity="0.1" d="M219.5 12.5L69 12.5L8.5 55.9998" stroke="#323941" stroke-width="2" stroke-linecap="round" stroke-linejoin="round"/>
<path d="M220.347 12.644C220.347 11.582 219.465 10.7 218.403 10.7C217.341 10.7 216.459 11.582 216.459 12.644C216.459 13.688 217.341 14.57 218.403 14.57C219.465 14.57 220.347 13.688 220.347 12.644ZM243.301 17V4.994H241.807V10.16H234.787V4.994H233.293V17H234.787V11.492H241.807V17H243.301ZM253.271 17V8.306H251.921V14.696C251.417 15.398 250.409 16.01 249.347 16.01C248.177 16.01 247.403 15.56 247.403 14.03V8.306H246.053V14.444C246.053 16.334 247.007 17.216 248.825 17.216C250.121 17.216 251.255 16.532 251.921 15.776V17H253.271ZM257.317 14.642V10.7C257.785 9.944 258.847 9.296 259.909 9.296C261.673 9.296 262.717 10.736 262.717 12.662C262.717 14.588 261.673 16.01 259.909 16.01C258.847 16.01 257.785 15.398 257.317 14.642ZM257.317 17V15.704C257.965 16.586 259.027 17.216 260.251 17.216C262.519 17.216 264.121 15.488 264.121 12.662C264.121 9.89 262.519 8.09 260.251 8.09C259.063 8.09 258.019 8.666 257.317 9.62V4.994H255.967V17H257.317ZM282.769 17V4.994H280.627L276.883 14.03L273.157 4.994H271.015V17H272.509V7.118L276.577 17H277.189L281.275 7.118V17H282.769ZM289.314 17.216C291.96 17.216 293.616 15.164 293.616 12.644C293.616 10.124 291.96 8.09 289.314 8.09C286.668 8.09 285.012 10.124 285.012 12.644C285.012 15.164 286.668 17.216 289.314 17.216ZM289.314 16.01C287.46 16.01 286.416 14.426 286.416 12.644C286.416 10.88 287.46 9.296 289.314 9.296C291.168 9.296 292.194 10.88 292.194 12.644C292.194 14.426 291.168 16.01 289.314 16.01ZM298.013 17.216C298.805 17.216 299.291 16.982 299.633 16.658L299.237 15.65C299.057 15.848 298.697 16.01 298.319 16.01C297.725 16.01 297.437 15.542 297.437 14.894V9.494H299.201V8.306H297.437V5.93H296.087V8.306H294.647V9.494H296.087V15.182C296.087 16.478 296.735 17.216 298.013 17.216ZM304.906 17.216C307.552 17.216 309.208 15.164 309.208 12.644C309.208 10.124 307.552 8.09 304.906 8.09C302.26 8.09 300.604 10.124 300.604 12.644C300.604 15.164 302.26 17.216 304.906 17.216ZM304.906 16.01C303.052 16.01 302.008 14.426 302.008 12.644C302.008 10.88 303.052 9.296 304.906 9.296C306.76 9.296 307.786 10.88 307.786 12.644C307.786 14.426 306.76 16.01 304.906 16.01ZM312.759 17V10.844C313.155 10.142 314.289 9.458 315.117 9.458C315.333 9.458 315.495 9.476 315.657 9.512V8.126C314.469 8.126 313.461 8.792 312.759 9.71V8.306H311.409V17H312.759Z" fill="#999999"/>
<circle cx="7.5" cy="56" r="6" fill="white" stroke="#E31E24" stroke-width="2"/>
</svg>
