<svg width="386" height="175" viewBox="0 0 386 175" fill="none" xmlns="http://www.w3.org/2000/svg">
<path opacity="0.1" d="M379.5 7.5L179 165.5H84" stroke="#323941" stroke-width="2" stroke-linecap="round" stroke-linejoin="round"/>
<path d="M11.412 170V157.994H9.918V163.16H2.898V157.994H1.404V170H2.898V164.492H9.918V170H11.412ZM18.0885 170.216C19.5105 170.216 20.6805 169.748 21.5445 168.884L20.8965 168.002C20.2125 168.704 19.2045 169.1 18.2145 169.1C16.3425 169.1 15.1905 167.732 15.0825 166.094H22.1205V165.752C22.1205 163.142 20.5725 161.09 17.9445 161.09C15.4605 161.09 13.6605 163.124 13.6605 165.644C13.6605 168.362 15.5145 170.216 18.0885 170.216ZM20.7885 165.104H15.0825C15.1545 163.772 16.0725 162.206 17.9265 162.206C19.9065 162.206 20.7705 163.808 20.7885 165.104ZM31.093 170V164.024C31.093 161.918 29.563 161.09 27.727 161.09C26.305 161.09 25.189 161.558 24.253 162.53L24.883 163.466C25.657 162.638 26.503 162.26 27.547 162.26C28.807 162.26 29.743 162.926 29.743 164.096V165.662C29.041 164.852 28.051 164.474 26.863 164.474C25.387 164.474 23.821 165.392 23.821 167.336C23.821 169.226 25.387 170.216 26.863 170.216C28.033 170.216 29.023 169.802 29.743 169.01V170H31.093ZM27.349 169.244C26.089 169.244 25.207 168.452 25.207 167.354C25.207 166.238 26.089 165.446 27.349 165.446C28.303 165.446 29.221 165.806 29.743 166.526V168.164C29.221 168.884 28.303 169.244 27.349 169.244ZM41.4492 170V157.994H40.0992V162.62C39.3972 161.666 38.3352 161.09 37.1652 161.09C34.8792 161.09 33.2952 162.89 33.2952 165.662C33.2952 168.488 34.8972 170.216 37.1652 170.216C38.3892 170.216 39.4512 169.586 40.0992 168.704V170H41.4492ZM37.4892 169.01C35.7432 169.01 34.6992 167.588 34.6992 165.662C34.6992 163.736 35.7432 162.296 37.4892 162.296C38.5692 162.296 39.6132 162.944 40.0992 163.7V167.642C39.6132 168.398 38.5692 169.01 37.4892 169.01ZM45.5027 170V157.994H44.1527V170H45.5027ZM48.8617 160.064C49.3657 160.064 49.7797 159.668 49.7797 159.164C49.7797 158.66 49.3657 158.246 48.8617 158.246C48.3757 158.246 47.9617 158.66 47.9617 159.164C47.9617 159.668 48.3757 160.064 48.8617 160.064ZM49.5457 170V161.306H48.1957V170H49.5457ZM55.7307 173.528C57.8547 173.528 59.8707 172.628 59.8707 169.748V161.306H58.5207V162.62C57.8187 161.666 56.7747 161.09 55.6047 161.09C53.3187 161.09 51.7347 162.818 51.7347 165.608C51.7347 168.416 53.3367 170.108 55.6047 170.108C56.8287 170.108 57.8907 169.442 58.5207 168.56V169.802C58.5207 171.71 57.1707 172.412 55.7307 172.412C54.4887 172.412 53.6247 172.088 52.9047 171.224L52.2207 172.232C53.2467 173.24 54.2547 173.528 55.7307 173.528ZM55.9287 168.92C54.1827 168.92 53.1387 167.516 53.1387 165.608C53.1387 163.682 54.1827 162.296 55.9287 162.296C57.0087 162.296 58.0527 162.944 58.5207 163.7V167.498C58.0527 168.254 57.0087 168.92 55.9287 168.92ZM69.8106 170V163.862C69.8106 161.972 68.8566 161.09 67.0386 161.09C65.7246 161.09 64.5366 161.846 63.9246 162.566V157.994H62.5746V170H63.9246V163.646C64.4466 162.944 65.4546 162.296 66.4986 162.296C67.6686 162.296 68.4606 162.746 68.4606 164.276V170H69.8106ZM74.7023 170.216C75.4943 170.216 75.9803 169.982 76.3223 169.658L75.9263 168.65C75.7463 168.848 75.3863 169.01 75.0083 169.01C74.4143 169.01 74.1263 168.542 74.1263 167.894V162.494H75.8903V161.306H74.1263V158.93H72.7763V161.306H71.3363V162.494H72.7763V168.182C72.7763 169.478 73.4243 170.216 74.7023 170.216ZM86.2719 165.644C86.2719 164.582 85.3899 163.7 84.3279 163.7C83.2659 163.7 82.3839 164.582 82.3839 165.644C82.3839 166.688 83.2659 167.57 84.3279 167.57C85.3899 167.57 86.2719 166.688 86.2719 165.644Z" fill="#999999"/>
<circle cx="378.5" cy="7" r="6" fill="white" stroke="#E31E24" stroke-width="2"/>
</svg>
