<svg width="356" height="33" viewBox="0 0 356 33" fill="none" xmlns="http://www.w3.org/2000/svg">
<path opacity="0.1" d="M347.5 7L311.5 23.5H170" stroke="#323941" stroke-width="2" stroke-linecap="round" stroke-linejoin="round"/>
<path d="M6.876 28.216C8.118 28.216 9.216 27.892 10.116 27.316L11.286 28.558L12.33 27.658L11.178 26.434C12.222 25.336 12.834 23.788 12.834 22.006C12.834 18.46 10.422 15.796 6.876 15.796C3.312 15.796 0.918 18.46 0.918 22.006C0.918 25.552 3.312 28.216 6.876 28.216ZM6.876 26.884C4.176 26.884 2.466 24.796 2.466 22.006C2.466 19.198 4.176 17.128 6.876 17.128C9.558 17.128 11.286 19.198 11.286 22.006C11.286 23.338 10.89 24.508 10.188 25.372L8.496 23.536L7.452 24.418L9.162 26.272C8.514 26.668 7.74 26.884 6.876 26.884ZM22.3317 28V19.306H20.9817V25.696C20.4777 26.398 19.4697 27.01 18.4077 27.01C17.2377 27.01 16.4637 26.56 16.4637 25.03V19.306H15.1137V25.444C15.1137 27.334 16.0677 28.216 17.8857 28.216C19.1817 28.216 20.3157 27.532 20.9817 26.776V28H22.3317ZM25.6937 18.064C26.1977 18.064 26.6117 17.668 26.6117 17.164C26.6117 16.66 26.1977 16.246 25.6937 16.246C25.2077 16.246 24.7937 16.66 24.7937 17.164C24.7937 17.668 25.2077 18.064 25.6937 18.064ZM26.3777 28V19.306H25.0277V28H26.3777ZM32.9047 28.216C34.4887 28.216 35.4247 27.568 36.0907 26.704L35.1907 25.876C34.6147 26.65 33.8767 27.01 32.9767 27.01C31.1227 27.01 29.9707 25.57 29.9707 23.644C29.9707 21.718 31.1227 20.296 32.9767 20.296C33.8767 20.296 34.6147 20.638 35.1907 21.43L36.0907 20.602C35.4247 19.738 34.4887 19.09 32.9047 19.09C30.3127 19.09 28.5667 21.07 28.5667 23.644C28.5667 26.236 30.3127 28.216 32.9047 28.216ZM45.6328 28L41.7628 23.248L45.6148 19.306H43.9048L39.3328 23.932V15.994H37.9828V28H39.3328V25.516L40.7728 24.094L43.9048 28H45.6328ZM60.6355 28L57.3955 23.104C59.0335 22.96 60.5095 21.772 60.5095 19.612C60.5095 17.398 58.9435 15.994 56.7475 15.994H51.9235V28H53.4175V23.23H55.8115L58.8715 28H60.6355ZM56.5675 21.916H53.4175V17.326H56.5675C57.9895 17.326 58.9615 18.262 58.9615 19.612C58.9615 20.962 57.9895 21.916 56.5675 21.916ZM66.1998 28.216C67.6218 28.216 68.7918 27.748 69.6558 26.884L69.0078 26.002C68.3238 26.704 67.3158 27.1 66.3258 27.1C64.4538 27.1 63.3018 25.732 63.1938 24.094H70.2318V23.752C70.2318 21.142 68.6838 19.09 66.0558 19.09C63.5718 19.09 61.7718 21.124 61.7718 23.644C61.7718 26.362 63.6258 28.216 66.1998 28.216ZM68.8998 23.104H63.1938C63.2658 21.772 64.1838 20.206 66.0378 20.206C68.0178 20.206 68.8818 21.808 68.8998 23.104ZM73.7684 28V15.994H72.4184V28H73.7684ZM80.3853 28.216C81.8073 28.216 82.9773 27.748 83.8413 26.884L83.1933 26.002C82.5093 26.704 81.5013 27.1 80.5113 27.1C78.6393 27.1 77.4873 25.732 77.3793 24.094H84.4173V23.752C84.4173 21.142 82.8693 19.09 80.2413 19.09C77.7573 19.09 75.9573 21.124 75.9573 23.644C75.9573 26.362 77.8113 28.216 80.3853 28.216ZM83.0853 23.104H77.3793C77.4513 21.772 78.3693 20.206 80.2233 20.206C82.2033 20.206 83.0673 21.808 83.0853 23.104ZM93.3899 28V22.024C93.3899 19.918 91.8599 19.09 90.0239 19.09C88.6019 19.09 87.4859 19.558 86.5499 20.53L87.1799 21.466C87.9539 20.638 88.7999 20.26 89.8439 20.26C91.1039 20.26 92.0399 20.926 92.0399 22.096V23.662C91.3379 22.852 90.3479 22.474 89.1599 22.474C87.6839 22.474 86.1179 23.392 86.1179 25.336C86.1179 27.226 87.6839 28.216 89.1599 28.216C90.3299 28.216 91.3199 27.802 92.0399 27.01V28H93.3899ZM89.6459 27.244C88.3859 27.244 87.5039 26.452 87.5039 25.354C87.5039 24.238 88.3859 23.446 89.6459 23.446C90.5999 23.446 91.5179 23.806 92.0399 24.526V26.164C91.5179 26.884 90.5999 27.244 89.6459 27.244ZM98.8501 28.216C101.1 28.216 102.27 27.046 102.27 25.588C102.27 22.204 96.8881 23.464 96.8881 21.556C96.8881 20.782 97.6261 20.188 98.8141 20.188C99.9301 20.188 100.884 20.656 101.406 21.286L102.036 20.35C101.334 19.648 100.29 19.09 98.8141 19.09C96.7441 19.09 95.5741 20.242 95.5741 21.592C95.5741 24.814 100.956 23.518 100.956 25.624C100.956 26.488 100.236 27.118 98.9041 27.118C97.7161 27.118 96.6181 26.542 96.0421 25.876L95.3401 26.848C96.2221 27.784 97.4281 28.216 98.8501 28.216ZM108.387 28.216C109.809 28.216 110.979 27.748 111.843 26.884L111.195 26.002C110.511 26.704 109.503 27.1 108.513 27.1C106.641 27.1 105.489 25.732 105.381 24.094H112.419V23.752C112.419 21.142 110.871 19.09 108.243 19.09C105.759 19.09 103.959 21.124 103.959 23.644C103.959 26.362 105.813 28.216 108.387 28.216ZM111.087 23.104H105.381C105.453 21.772 106.371 20.206 108.225 20.206C110.205 20.206 111.069 21.808 111.087 23.104ZM126.374 28V26.668H120.794V15.994H119.3V28H126.374ZM131.96 28.216C133.382 28.216 134.552 27.748 135.416 26.884L134.768 26.002C134.084 26.704 133.076 27.1 132.086 27.1C130.214 27.1 129.062 25.732 128.954 24.094H135.992V23.752C135.992 21.142 134.444 19.09 131.816 19.09C129.332 19.09 127.532 21.124 127.532 23.644C127.532 26.362 129.386 28.216 131.96 28.216ZM134.66 23.104H128.954C129.026 21.772 129.944 20.206 131.798 20.206C133.778 20.206 134.642 21.808 134.66 23.104ZM141.976 28L145.594 19.306H144.118L141.238 26.434L138.34 19.306H136.882L140.5 28H141.976ZM150.926 28.216C152.348 28.216 153.518 27.748 154.382 26.884L153.734 26.002C153.05 26.704 152.042 27.1 151.052 27.1C149.18 27.1 148.028 25.732 147.92 24.094H154.958V23.752C154.958 21.142 153.41 19.09 150.782 19.09C148.298 19.09 146.498 21.124 146.498 23.644C146.498 26.362 148.352 28.216 150.926 28.216ZM153.626 23.104H147.92C147.992 21.772 148.91 20.206 150.764 20.206C152.744 20.206 153.608 21.808 153.626 23.104ZM158.495 28V21.844C158.891 21.142 160.025 20.458 160.853 20.458C161.069 20.458 161.231 20.476 161.393 20.512V19.126C160.205 19.126 159.197 19.792 158.495 20.71V19.306H157.145V28H158.495ZM171.561 23.644C171.561 22.582 170.679 21.7 169.617 21.7C168.555 21.7 167.673 22.582 167.673 23.644C167.673 24.688 168.555 25.57 169.617 25.57C170.679 25.57 171.561 24.688 171.561 23.644Z" fill="#999999"/>
<circle cx="348.5" cy="7" r="6" fill="white" stroke="#E31E24" stroke-width="2"/>
</svg>
