<svg width="418" height="130" viewBox="0 0 418 130" fill="none" xmlns="http://www.w3.org/2000/svg">
<path opacity="0.5" d="M405 13H293L155 121" stroke="#E31E24" stroke-width="2" stroke-linecap="round" stroke-linejoin="round"/>
<path d="M9.504 125V123.146H3.384V119.816H9.378V117.962H3.384V114.848H9.504V112.994H1.278V125H9.504ZM13.5027 125V112.994H11.6127V125H13.5027ZM19.9685 125.216C21.3545 125.216 22.6325 124.784 23.4965 123.956L22.6325 122.714C22.0205 123.326 21.0125 123.668 20.1665 123.668C18.5285 123.668 17.5385 122.588 17.3945 121.274H24.1085V120.824C24.1085 118.088 22.4345 116.09 19.8245 116.09C17.2505 116.09 15.4145 118.124 15.4145 120.644C15.4145 123.398 17.3585 125.216 19.9685 125.216ZM22.2725 119.942H17.3765C17.4665 118.88 18.2045 117.638 19.8245 117.638C21.5345 117.638 22.2365 118.916 22.2725 119.942ZM29.934 125.216C31.626 125.216 32.652 124.496 33.264 123.668L32.022 122.516C31.536 123.182 30.87 123.542 30.024 123.542C28.44 123.542 27.396 122.336 27.396 120.644C27.396 118.952 28.44 117.764 30.024 117.764C30.87 117.764 31.536 118.106 32.022 118.79L33.264 117.638C32.652 116.81 31.626 116.09 29.934 116.09C27.288 116.09 25.434 118.016 25.434 120.644C25.434 123.29 27.288 125.216 29.934 125.216ZM37.5313 125.216C38.4133 125.216 38.9713 124.982 39.3133 124.658L38.8633 123.236C38.7193 123.398 38.3773 123.542 38.0173 123.542C37.4773 123.542 37.1893 123.11 37.1893 122.516V117.962H38.9533V116.306H37.1893V113.93H35.2993V116.306H33.8593V117.962H35.2993V122.984C35.2993 124.424 36.0733 125.216 37.5313 125.216ZM42.5593 125V119.078C42.9373 118.466 43.9993 117.926 44.7913 117.926C45.0253 117.926 45.2233 117.944 45.3853 117.98V116.108C44.2513 116.108 43.2073 116.756 42.5593 117.584V116.306H40.6693V125H42.5593ZM50.8335 125.216C53.6235 125.216 55.3155 123.146 55.3155 120.644C55.3155 118.16 53.6235 116.09 50.8335 116.09C48.0795 116.09 46.3695 118.16 46.3695 120.644C46.3695 123.146 48.0795 125.216 50.8335 125.216ZM50.8335 123.542C49.2315 123.542 48.3315 122.192 48.3315 120.644C48.3315 119.114 49.2315 117.764 50.8335 117.764C52.4535 117.764 53.3535 119.114 53.3535 120.644C53.3535 122.192 52.4535 123.542 50.8335 123.542ZM64.9859 125V118.88C64.9859 117.098 64.0499 116.09 62.1779 116.09C60.8099 116.09 59.6939 116.81 59.1179 117.494V116.306H57.2279V125H59.1179V118.934C59.5499 118.34 60.3779 117.764 61.3499 117.764C62.4119 117.764 63.0959 118.214 63.0959 119.564V125H64.9859ZM68.3768 115.244C69.0248 115.244 69.5468 114.722 69.5468 114.074C69.5468 113.426 69.0248 112.904 68.3768 112.904C67.7468 112.904 67.2068 113.426 67.2068 114.074C67.2068 114.722 67.7468 115.244 68.3768 115.244ZM69.3308 125V116.306H67.4408V125H69.3308ZM75.7426 125.216C77.4346 125.216 78.4606 124.496 79.0726 123.668L77.8306 122.516C77.3446 123.182 76.6786 123.542 75.8326 123.542C74.2486 123.542 73.2046 122.336 73.2046 120.644C73.2046 118.952 74.2486 117.764 75.8326 117.764C76.6786 117.764 77.3446 118.106 77.8306 118.79L79.0726 117.638C78.4606 116.81 77.4346 116.09 75.7426 116.09C73.0966 116.09 71.2426 118.016 71.2426 120.644C71.2426 123.29 73.0966 125.216 75.7426 125.216ZM90.3749 125V114.848H94.0109V112.994H84.6329V114.848H88.2689V125H90.3749ZM103.518 125V118.844C103.518 117.062 102.582 116.09 100.71 116.09C99.3416 116.09 98.2076 116.81 97.6316 117.494V112.994H95.7416V125H97.6316V118.934C98.0816 118.34 98.9096 117.764 99.8636 117.764C100.926 117.764 101.628 118.178 101.628 119.528V125H103.518ZM107.862 125V119.078C108.24 118.466 109.302 117.926 110.094 117.926C110.328 117.926 110.526 117.944 110.688 117.98V116.108C109.554 116.108 108.51 116.756 107.862 117.584V116.306H105.972V125H107.862ZM116.136 125.216C118.926 125.216 120.618 123.146 120.618 120.644C120.618 118.16 118.926 116.09 116.136 116.09C113.382 116.09 111.672 118.16 111.672 120.644C111.672 123.146 113.382 125.216 116.136 125.216ZM116.136 123.542C114.534 123.542 113.634 122.192 113.634 120.644C113.634 119.114 114.534 117.764 116.136 117.764C117.756 117.764 118.656 119.114 118.656 120.644C118.656 122.192 117.756 123.542 116.136 123.542ZM125.141 125.216C126.023 125.216 126.581 124.982 126.923 124.658L126.473 123.236C126.329 123.398 125.987 123.542 125.627 123.542C125.087 123.542 124.799 123.11 124.799 122.516V117.962H126.563V116.306H124.799V113.93H122.909V116.306H121.469V117.962H122.909V122.984C122.909 124.424 123.683 125.216 125.141 125.216ZM130.889 125.216C131.771 125.216 132.329 124.982 132.671 124.658L132.221 123.236C132.077 123.398 131.735 123.542 131.375 123.542C130.835 123.542 130.547 123.11 130.547 122.516V117.962H132.311V116.306H130.547V113.93H128.657V116.306H127.217V117.962H128.657V122.984C128.657 124.424 129.431 125.216 130.889 125.216ZM135.917 125V112.994H134.027V125H135.917ZM142.383 125.216C143.769 125.216 145.047 124.784 145.911 123.956L145.047 122.714C144.435 123.326 143.427 123.668 142.581 123.668C140.943 123.668 139.953 122.588 139.809 121.274H146.523V120.824C146.523 118.088 144.849 116.09 142.239 116.09C139.665 116.09 137.829 118.124 137.829 120.644C137.829 123.398 139.773 125.216 142.383 125.216ZM144.687 119.942H139.791C139.881 118.88 140.619 117.638 142.239 117.638C143.949 117.638 144.651 118.916 144.687 119.942ZM157.079 120.644C157.079 119.51 156.161 118.592 155.027 118.592C153.893 118.592 152.975 119.51 152.975 120.644C152.975 121.76 153.893 122.678 155.027 122.678C156.161 122.678 157.079 121.76 157.079 120.644Z" fill="url(#paint0_linear_165_2763)"/>
<circle cx="404.5" cy="13" r="6" fill="white" stroke="#E31E24" stroke-width="2"/>
<circle opacity="0.1" cx="404.5" cy="13" r="13" fill="url(#paint1_radial_165_2763)"/>
<circle opacity="0.2" cx="404.5" cy="13" r="11" fill="url(#paint2_radial_165_2763)"/>
<circle opacity="0.3" cx="404.5" cy="13" r="9" fill="url(#paint3_radial_165_2763)"/>
<defs>
<linearGradient id="paint0_linear_165_2763" x1="79.5" y1="108" x2="79.5" y2="130" gradientUnits="userSpaceOnUse">
<stop stop-color="#E31E24"/>
<stop offset="1" stop-color="#007BCD"/>
</linearGradient>
<radialGradient id="paint1_radial_165_2763" cx="0" cy="0" r="1" gradientUnits="userSpaceOnUse" gradientTransform="translate(404.5 13) rotate(90) scale(13)">
<stop offset="0.734375" stop-color="#E31E24" stop-opacity="0"/>
<stop offset="1" stop-color="#00A0FF"/>
</radialGradient>
<radialGradient id="paint2_radial_165_2763" cx="0" cy="0" r="1" gradientUnits="userSpaceOnUse" gradientTransform="translate(404.5 13) rotate(90) scale(11)">
<stop offset="0.734375" stop-color="#E31E24" stop-opacity="0"/>
<stop offset="1" stop-color="#00A0FF"/>
</radialGradient>
<radialGradient id="paint3_radial_165_2763" cx="0" cy="0" r="1" gradientUnits="userSpaceOnUse" gradientTransform="translate(404.5 13) rotate(90) scale(9)">
<stop offset="0.734375" stop-color="#E31E24" stop-opacity="0"/>
<stop offset="1" stop-color="#00A0FF"/>
</radialGradient>
</defs>
</svg>
