<svg width="350" height="41" viewBox="0 0 350 41" fill="none" xmlns="http://www.w3.org/2000/svg">
<path opacity="0.1" d="M342.5 34.5H289L261.5 12.5H101.5" stroke="#323941" stroke-width="2" stroke-linecap="round" stroke-linejoin="round"/>
<path d="M5.508 17C9.234 17 11.664 14.426 11.664 11.006C11.664 7.604 9.234 4.994 5.508 4.994H1.404V17H5.508ZM5.508 15.668H2.898V6.326H5.508C8.478 6.326 10.116 8.414 10.116 11.006C10.116 13.58 8.424 15.668 5.508 15.668ZM15.3035 17V10.844C15.6995 10.142 16.8335 9.458 17.6615 9.458C17.8775 9.458 18.0395 9.476 18.2015 9.512V8.126C17.0135 8.126 16.0055 8.792 15.3035 9.71V8.306H13.9535V17H15.3035ZM27.1129 17V8.306H25.7629V14.696C25.2589 15.398 24.2509 16.01 23.1889 16.01C22.0189 16.01 21.2449 15.56 21.2449 14.03V8.306H19.8949V14.444C19.8949 16.334 20.8489 17.216 22.6669 17.216C23.9629 17.216 25.0969 16.532 25.7629 15.776V17H27.1129ZM41.653 17V10.718C41.653 8.972 40.807 8.09 39.223 8.09C37.963 8.09 36.793 8.918 36.307 9.71C36.055 8.81 35.299 8.09 33.967 8.09C32.689 8.09 31.519 9.008 31.159 9.566V8.306H29.809V17H31.159V10.646C31.627 9.944 32.563 9.296 33.445 9.296C34.579 9.296 35.047 9.998 35.047 11.096V17H36.397V10.628C36.847 9.944 37.801 9.296 38.701 9.296C39.817 9.296 40.303 9.998 40.303 11.096V17H41.653ZM54.5127 17C56.7087 17 57.9867 15.686 57.9867 13.76C57.9867 12.32 56.9247 11.006 55.6467 10.808C56.7447 10.574 57.7527 9.566 57.7527 8.054C57.7527 6.254 56.4747 4.994 54.3867 4.994H49.0407V17H54.5127ZM54.1347 10.196H50.5347V6.326H54.1347C55.4847 6.326 56.2047 7.19 56.2047 8.27C56.2047 9.368 55.4847 10.196 54.1347 10.196ZM54.2067 15.668H50.5347V11.528H54.2067C55.6827 11.528 56.4387 12.5 56.4387 13.598C56.4387 14.876 55.6107 15.668 54.2067 15.668ZM61.657 17V10.844C62.053 10.142 63.187 9.458 64.015 9.458C64.231 9.458 64.393 9.476 64.555 9.512V8.126C63.367 8.126 62.359 8.792 61.657 9.71V8.306H60.307V17H61.657ZM73.0344 17V11.024C73.0344 8.918 71.5044 8.09 69.6684 8.09C68.2464 8.09 67.1304 8.558 66.1944 9.53L66.8244 10.466C67.5984 9.638 68.4444 9.26 69.4884 9.26C70.7484 9.26 71.6844 9.926 71.6844 11.096V12.662C70.9824 11.852 69.9924 11.474 68.8044 11.474C67.3284 11.474 65.7624 12.392 65.7624 14.336C65.7624 16.226 67.3284 17.216 68.8044 17.216C69.9744 17.216 70.9644 16.802 71.6844 16.01V17H73.0344ZM69.2904 16.244C68.0304 16.244 67.1484 15.452 67.1484 14.354C67.1484 13.238 68.0304 12.446 69.2904 12.446C70.2444 12.446 71.1624 12.806 71.6844 13.526V15.164C71.1624 15.884 70.2444 16.244 69.2904 16.244ZM83.3906 17L79.5206 12.248L83.3726 8.306H81.6626L77.0906 12.932V4.994H75.7406V17H77.0906V14.516L78.5306 13.094L81.6626 17H83.3906ZM88.858 17.216C90.28 17.216 91.45 16.748 92.314 15.884L91.666 15.002C90.982 15.704 89.974 16.1 88.984 16.1C87.112 16.1 85.96 14.732 85.852 13.094H92.89V12.752C92.89 10.142 91.342 8.09 88.714 8.09C86.23 8.09 84.43 10.124 84.43 12.644C84.43 15.362 86.284 17.216 88.858 17.216ZM91.558 12.104H85.852C85.924 10.772 86.842 9.206 88.696 9.206C90.676 9.206 91.54 10.808 91.558 12.104ZM103.551 12.644C103.551 11.582 102.669 10.7 101.607 10.7C100.545 10.7 99.6632 11.582 99.6632 12.644C99.6632 13.688 100.545 14.57 101.607 14.57C102.669 14.57 103.551 13.688 103.551 12.644Z" fill="#999999"/>
<circle cx="342.5" cy="34" r="6" fill="white" stroke="#E31E24" stroke-width="2"/>
</svg>
