<svg width="362" height="133" viewBox="0 0 362 133" fill="none" xmlns="http://www.w3.org/2000/svg">
<path opacity="0.1" d="M355.5 7H287.5L143 123.5H38" stroke="#323941" stroke-width="2" stroke-linecap="round" stroke-linejoin="round"/>
<path d="M6.876 128C9.072 128 10.35 126.686 10.35 124.76C10.35 123.32 9.288 122.006 8.01 121.808C9.108 121.574 10.116 120.566 10.116 119.054C10.116 117.254 8.838 115.994 6.75 115.994H1.404V128H6.876ZM6.498 121.196H2.898V117.326H6.498C7.848 117.326 8.568 118.19 8.568 119.27C8.568 120.368 7.848 121.196 6.498 121.196ZM6.57 126.668H2.898V122.528H6.57C8.046 122.528 8.802 123.5 8.802 124.598C8.802 125.876 7.974 126.668 6.57 126.668ZM16.5943 128.216C18.0163 128.216 19.1863 127.748 20.0503 126.884L19.4023 126.002C18.7183 126.704 17.7103 127.1 16.7203 127.1C14.8483 127.1 13.6963 125.732 13.5883 124.094H20.6263V123.752C20.6263 121.142 19.0783 119.09 16.4503 119.09C13.9663 119.09 12.1663 121.124 12.1663 123.644C12.1663 126.362 14.0203 128.216 16.5943 128.216ZM19.2943 123.104H13.5883C13.6603 121.772 14.5783 120.206 16.4323 120.206C18.4123 120.206 19.2763 121.808 19.2943 123.104ZM24.1629 128V115.994H22.8129V128H24.1629ZM28.2059 128V115.994H26.8559V128H28.2059ZM39.3735 123.644C39.3735 122.582 38.4915 121.7 37.4295 121.7C36.3675 121.7 35.4855 122.582 35.4855 123.644C35.4855 124.688 36.3675 125.57 37.4295 125.57C38.4915 125.57 39.3735 124.688 39.3735 123.644Z" fill="#999999"/>
<circle cx="354.5" cy="7" r="6" fill="white" stroke="#E31E24" stroke-width="2"/>
</svg>
