<svg width="377" height="44" viewBox="0 0 377 44" fill="none" xmlns="http://www.w3.org/2000/svg">
<path opacity="0.1" d="M369.5 7.5L321 34.5621H161" stroke="#323941" stroke-width="2" stroke-linecap="round" stroke-linejoin="round"/>
<path d="M2.898 39V33.528H9.144V32.196H2.898V28.326H9.27V26.994H1.404V39H2.898ZM15.0445 39.216C17.6905 39.216 19.3465 37.164 19.3465 34.644C19.3465 32.124 17.6905 30.09 15.0445 30.09C12.3985 30.09 10.7425 32.124 10.7425 34.644C10.7425 37.164 12.3985 39.216 15.0445 39.216ZM15.0445 38.01C13.1905 38.01 12.1465 36.426 12.1465 34.644C12.1465 32.88 13.1905 31.296 15.0445 31.296C16.8985 31.296 17.9245 32.88 17.9245 34.644C17.9245 36.426 16.8985 38.01 15.0445 38.01ZM22.8973 39V26.994H21.5473V39H22.8973ZM33.2402 39V26.994H31.8902V31.62C31.1882 30.666 30.1262 30.09 28.9562 30.09C26.6702 30.09 25.0862 31.89 25.0862 34.662C25.0862 37.488 26.6882 39.216 28.9562 39.216C30.1802 39.216 31.2422 38.586 31.8902 37.704V39H33.2402ZM29.2802 38.01C27.5342 38.01 26.4902 36.588 26.4902 34.662C26.4902 32.736 27.5342 31.296 29.2802 31.296C30.3602 31.296 31.4042 31.944 31.8902 32.7V36.642C31.4042 37.398 30.3602 38.01 29.2802 38.01ZM36.6098 29.064C37.1138 29.064 37.5278 28.668 37.5278 28.164C37.5278 27.66 37.1138 27.246 36.6098 27.246C36.1238 27.246 35.7098 27.66 35.7098 28.164C35.7098 28.668 36.1238 29.064 36.6098 29.064ZM37.2938 39V30.306H35.9438V39H37.2938ZM47.2047 39V32.898C47.2047 31.008 46.2507 30.09 44.4327 30.09C43.1367 30.09 41.9487 30.846 41.3367 31.566V30.306H39.9867V39H41.3367V32.646C41.8407 31.944 42.8487 31.296 43.9107 31.296C45.0807 31.296 45.8547 31.782 45.8547 33.312V39H47.2047ZM53.3928 42.528C55.5168 42.528 57.5328 41.628 57.5328 38.748V30.306H56.1828V31.62C55.4808 30.666 54.4368 30.09 53.2668 30.09C50.9808 30.09 49.3968 31.818 49.3968 34.608C49.3968 37.416 50.9988 39.108 53.2668 39.108C54.4908 39.108 55.5528 38.442 56.1828 37.56V38.802C56.1828 40.71 54.8328 41.412 53.3928 41.412C52.1508 41.412 51.2868 41.088 50.5668 40.224L49.8828 41.232C50.9088 42.24 51.9168 42.528 53.3928 42.528ZM53.5908 37.92C51.8448 37.92 50.8008 36.516 50.8008 34.608C50.8008 32.682 51.8448 31.296 53.5908 31.296C54.6708 31.296 55.7148 31.944 56.1828 32.7V36.498C55.7148 37.254 54.6708 37.92 53.5908 37.92ZM76.6853 39V26.994H74.5433L70.7993 36.03L67.0733 26.994H64.9313V39H66.4253V29.118L70.4933 39H71.1053L75.1913 29.118V39H76.6853ZM83.356 39.216C84.778 39.216 85.948 38.748 86.812 37.884L86.164 37.002C85.48 37.704 84.472 38.1 83.482 38.1C81.61 38.1 80.458 36.732 80.35 35.094H87.388V34.752C87.388 32.142 85.84 30.09 83.212 30.09C80.728 30.09 78.928 32.124 78.928 34.644C78.928 37.362 80.782 39.216 83.356 39.216ZM86.056 34.104H80.35C80.422 32.772 81.34 31.206 83.194 31.206C85.174 31.206 86.038 32.808 86.056 34.104ZM93.4086 39.216C94.9926 39.216 95.9286 38.568 96.5946 37.704L95.6946 36.876C95.1186 37.65 94.3806 38.01 93.4806 38.01C91.6266 38.01 90.4746 36.57 90.4746 34.644C90.4746 32.718 91.6266 31.296 93.4806 31.296C94.3806 31.296 95.1186 31.638 95.6946 32.43L96.5946 31.602C95.9286 30.738 94.9926 30.09 93.4086 30.09C90.8166 30.09 89.0706 32.07 89.0706 34.644C89.0706 37.236 90.8166 39.216 93.4086 39.216ZM105.723 39V32.862C105.723 30.972 104.769 30.09 102.951 30.09C101.637 30.09 100.449 30.846 99.8367 31.566V26.994H98.4867V39H99.8367V32.646C100.359 31.944 101.367 31.296 102.411 31.296C103.581 31.296 104.373 31.746 104.373 33.276V39H105.723ZM115.204 39V33.024C115.204 30.918 113.674 30.09 111.838 30.09C110.416 30.09 109.3 30.558 108.364 31.53L108.994 32.466C109.768 31.638 110.614 31.26 111.658 31.26C112.918 31.26 113.854 31.926 113.854 33.096V34.662C113.152 33.852 112.162 33.474 110.974 33.474C109.498 33.474 107.932 34.392 107.932 36.336C107.932 38.226 109.498 39.216 110.974 39.216C112.144 39.216 113.134 38.802 113.854 38.01V39H115.204ZM111.46 38.244C110.2 38.244 109.318 37.452 109.318 36.354C109.318 35.238 110.2 34.446 111.46 34.446C112.414 34.446 113.332 34.806 113.854 35.526V37.164C113.332 37.884 112.414 38.244 111.46 38.244ZM125.129 39V32.898C125.129 31.008 124.175 30.09 122.357 30.09C121.061 30.09 119.873 30.846 119.261 31.566V30.306H117.911V39H119.261V32.646C119.765 31.944 120.773 31.296 121.835 31.296C123.005 31.296 123.779 31.782 123.779 33.312V39H125.129ZM128.491 29.064C128.995 29.064 129.409 28.668 129.409 28.164C129.409 27.66 128.995 27.246 128.491 27.246C128.005 27.246 127.591 27.66 127.591 28.164C127.591 28.668 128.005 29.064 128.491 29.064ZM129.175 39V30.306H127.825V39H129.175ZM134.622 39.216C136.872 39.216 138.042 38.046 138.042 36.588C138.042 33.204 132.66 34.464 132.66 32.556C132.66 31.782 133.398 31.188 134.586 31.188C135.702 31.188 136.656 31.656 137.178 32.286L137.808 31.35C137.106 30.648 136.062 30.09 134.586 30.09C132.516 30.09 131.346 31.242 131.346 32.592C131.346 35.814 136.728 34.518 136.728 36.624C136.728 37.488 136.008 38.118 134.676 38.118C133.488 38.118 132.39 37.542 131.814 36.876L131.112 37.848C131.994 38.784 133.2 39.216 134.622 39.216ZM152.079 39V32.718C152.079 30.972 151.233 30.09 149.649 30.09C148.389 30.09 147.219 30.918 146.733 31.71C146.481 30.81 145.725 30.09 144.393 30.09C143.115 30.09 141.945 31.008 141.585 31.566V30.306H140.235V39H141.585V32.646C142.053 31.944 142.989 31.296 143.871 31.296C145.005 31.296 145.473 31.998 145.473 33.096V39H146.823V32.628C147.273 31.944 148.227 31.296 149.127 31.296C150.243 31.296 150.729 31.998 150.729 33.096V39H152.079ZM163.247 34.644C163.247 33.582 162.365 32.7 161.303 32.7C160.241 32.7 159.359 33.582 159.359 34.644C159.359 35.688 160.241 36.57 161.303 36.57C162.365 36.57 163.247 35.688 163.247 34.644Z" fill="#999999"/>
<circle cx="369.5" cy="7" r="6" fill="white" stroke="#E31E24" stroke-width="2"/>
</svg>
