<svg width="318" height="144" viewBox="0 0 318 144" fill="none" xmlns="http://www.w3.org/2000/svg">
<path opacity="0.1" d="M311 6L146.5 134.5H106" stroke="#323941" stroke-width="2" stroke-linecap="round" stroke-linejoin="round"/>
<path d="M6.876 139C9.072 139 10.35 137.686 10.35 135.76C10.35 134.32 9.288 133.006 8.01 132.808C9.108 132.574 10.116 131.566 10.116 130.054C10.116 128.254 8.838 126.994 6.75 126.994H1.404V139H6.876ZM6.498 132.196H2.898V128.326H6.498C7.848 128.326 8.568 129.19 8.568 130.27C8.568 131.368 7.848 132.196 6.498 132.196ZM6.57 137.668H2.898V133.528H6.57C8.046 133.528 8.802 134.5 8.802 135.598C8.802 136.876 7.974 137.668 6.57 137.668ZM14.0203 139V132.844C14.4163 132.142 15.5503 131.458 16.3783 131.458C16.5943 131.458 16.7563 131.476 16.9183 131.512V130.126C15.7303 130.126 14.7223 130.792 14.0203 131.71V130.306H12.6703V139H14.0203ZM25.3977 139V133.024C25.3977 130.918 23.8677 130.09 22.0317 130.09C20.6097 130.09 19.4937 130.558 18.5577 131.53L19.1877 132.466C19.9617 131.638 20.8077 131.26 21.8517 131.26C23.1117 131.26 24.0477 131.926 24.0477 133.096V134.662C23.3457 133.852 22.3557 133.474 21.1677 133.474C19.6917 133.474 18.1257 134.392 18.1257 136.336C18.1257 138.226 19.6917 139.216 21.1677 139.216C22.3377 139.216 23.3277 138.802 24.0477 138.01V139H25.3977ZM21.6537 138.244C20.3937 138.244 19.5117 137.452 19.5117 136.354C19.5117 135.238 20.3937 134.446 21.6537 134.446C22.6077 134.446 23.5257 134.806 24.0477 135.526V137.164C23.5257 137.884 22.6077 138.244 21.6537 138.244ZM35.7539 139L31.8839 134.248L35.7359 130.306H34.0259L29.4539 134.932V126.994H28.1039V139H29.4539V136.516L30.8939 135.094L34.0259 139H35.7539ZM41.2213 139.216C42.6433 139.216 43.8133 138.748 44.6773 137.884L44.0293 137.002C43.3453 137.704 42.3373 138.1 41.3473 138.1C39.4753 138.1 38.3233 136.732 38.2153 135.094H45.2533V134.752C45.2533 132.142 43.7053 130.09 41.0773 130.09C38.5933 130.09 36.7933 132.124 36.7933 134.644C36.7933 137.362 38.6473 139.216 41.2213 139.216ZM43.9213 134.104H38.2153C38.2873 132.772 39.2053 131.206 41.0593 131.206C43.0393 131.206 43.9033 132.808 43.9213 134.104ZM59.2085 139V137.668H53.6285V126.994H52.1345V139H59.2085ZM64.7935 139.216C66.2155 139.216 67.3855 138.748 68.2495 137.884L67.6015 137.002C66.9175 137.704 65.9095 138.1 64.9195 138.1C63.0475 138.1 61.8955 136.732 61.7875 135.094H68.8255V134.752C68.8255 132.142 67.2775 130.09 64.6495 130.09C62.1655 130.09 60.3655 132.124 60.3655 134.644C60.3655 137.362 62.2195 139.216 64.7935 139.216ZM67.4935 134.104H61.7875C61.8595 132.772 62.7775 131.206 64.6315 131.206C66.6115 131.206 67.4755 132.808 67.4935 134.104ZM79.8861 139L82.6581 130.306H81.2541L79.1301 137.236L76.8441 130.306H75.6921L73.4061 137.236L71.2821 130.306H69.8781L72.6501 139H74.0001L76.2681 132.016L78.5361 139H79.8861ZM88.1549 139.216C89.5769 139.216 90.7469 138.748 91.6109 137.884L90.9629 137.002C90.2789 137.704 89.2709 138.1 88.2809 138.1C86.4089 138.1 85.2569 136.732 85.1489 135.094H92.1869V134.752C92.1869 132.142 90.6389 130.09 88.0109 130.09C85.5269 130.09 83.7269 132.124 83.7269 134.644C83.7269 137.362 85.5809 139.216 88.1549 139.216ZM90.8549 134.104H85.1489C85.2209 132.772 86.1389 131.206 87.9929 131.206C89.9729 131.206 90.8369 132.808 90.8549 134.104ZM95.7234 139V132.844C96.1194 132.142 97.2534 131.458 98.0814 131.458C98.2974 131.458 98.4594 131.476 98.6214 131.512V130.126C97.4334 130.126 96.4254 130.792 95.7234 131.71V130.306H94.3734V139H95.7234ZM108.789 134.644C108.789 133.582 107.907 132.7 106.845 132.7C105.783 132.7 104.901 133.582 104.901 134.644C104.901 135.688 105.783 136.57 106.845 136.57C107.907 136.57 108.789 135.688 108.789 134.644Z" fill="#999999"/>
<circle cx="311" cy="7" r="6" fill="white" stroke="#E31E24" stroke-width="2"/>
</svg>
