<svg width="343" height="31" viewBox="0 0 343 31" fill="none" xmlns="http://www.w3.org/2000/svg">
<path opacity="0.1" d="M336 24L282 12.5H89.5" stroke="#323941" stroke-width="2" stroke-linecap="round" stroke-linejoin="round"/>
<path d="M2.898 17V11.528H9.144V10.196H2.898V6.326H9.27V4.994H1.404V17H2.898ZM12.5965 17V10.844C12.9925 10.142 14.1265 9.458 14.9545 9.458C15.1705 9.458 15.3325 9.476 15.4945 9.512V8.126C14.3065 8.126 13.2985 8.792 12.5965 9.71V8.306H11.2465V17H12.5965ZM20.9859 17.216C23.6319 17.216 25.2879 15.164 25.2879 12.644C25.2879 10.124 23.6319 8.09 20.9859 8.09C18.3399 8.09 16.6839 10.124 16.6839 12.644C16.6839 15.164 18.3399 17.216 20.9859 17.216ZM20.9859 16.01C19.1319 16.01 18.0879 14.426 18.0879 12.644C18.0879 10.88 19.1319 9.296 20.9859 9.296C22.8399 9.296 23.8659 10.88 23.8659 12.644C23.8659 14.426 22.8399 16.01 20.9859 16.01ZM34.7067 17V10.898C34.7067 9.008 33.7527 8.09 31.9347 8.09C30.6387 8.09 29.4507 8.846 28.8387 9.566V8.306H27.4887V17H28.8387V10.646C29.3427 9.944 30.3507 9.296 31.4127 9.296C32.5827 9.296 33.3567 9.782 33.3567 11.312V17H34.7067ZM39.5987 17.216C40.3907 17.216 40.8767 16.982 41.2187 16.658L40.8227 15.65C40.6427 15.848 40.2827 16.01 39.9047 16.01C39.3107 16.01 39.0227 15.542 39.0227 14.894V9.494H40.7867V8.306H39.0227V5.93H37.6727V8.306H36.2327V9.494H37.6727V15.182C37.6727 16.478 38.3207 17.216 39.5987 17.216ZM48.8824 17V11.528H55.1284V10.196H48.8824V6.326H55.2544V4.994H47.3884V17H48.8824ZM61.0289 17.216C63.6749 17.216 65.3309 15.164 65.3309 12.644C65.3309 10.124 63.6749 8.09 61.0289 8.09C58.3829 8.09 56.7269 10.124 56.7269 12.644C56.7269 15.164 58.3829 17.216 61.0289 17.216ZM61.0289 16.01C59.1749 16.01 58.1309 14.426 58.1309 12.644C58.1309 10.88 59.1749 9.296 61.0289 9.296C62.8829 9.296 63.9089 10.88 63.9089 12.644C63.9089 14.426 62.8829 16.01 61.0289 16.01ZM68.8816 17V10.844C69.2776 10.142 70.4116 9.458 71.2396 9.458C71.4556 9.458 71.6176 9.476 71.7796 9.512V8.126C70.5916 8.126 69.5836 8.792 68.8816 9.71V8.306H67.5316V17H68.8816ZM81.123 17L77.253 12.248L81.105 8.306H79.395L74.823 12.932V4.994H73.473V17H74.823V14.516L76.263 13.094L79.395 17H81.123ZM91.1938 12.644C91.1938 11.582 90.3118 10.7 89.2498 10.7C88.1878 10.7 87.3058 11.582 87.3058 12.644C87.3058 13.688 88.1878 14.57 89.2498 14.57C90.3118 14.57 91.1938 13.688 91.1938 12.644Z" fill="#999999"/>
<circle cx="335.5" cy="24" r="6" fill="white" stroke="#E31E24" stroke-width="2"/>
</svg>
