<svg width="342" height="22" viewBox="0 0 342 22" fill="none" xmlns="http://www.w3.org/2000/svg">
<path d="M5.382 17.216C8.622 17.216 10.026 15.506 10.026 13.508C10.026 9.026 3.042 10.412 3.042 8.18C3.042 7.28 3.834 6.686 5.076 6.686C6.336 6.686 7.614 7.118 8.55 8.054L9.756 6.488C8.64 5.408 7.128 4.814 5.256 4.814C2.628 4.814 0.882 6.344 0.882 8.324C0.882 12.752 7.884 11.186 7.884 13.706C7.884 14.498 7.2 15.344 5.472 15.344C3.798 15.344 2.502 14.57 1.674 13.688L0.504 15.308C1.566 16.442 3.168 17.216 5.382 17.216ZM14.2578 17.216C15.1398 17.216 15.6978 16.982 16.0398 16.658L15.5898 15.236C15.4458 15.398 15.1038 15.542 14.7438 15.542C14.2038 15.542 13.9158 15.11 13.9158 14.516V9.962H15.6798V8.306H13.9158V5.93H12.0258V8.306H10.5858V9.962H12.0258V14.984C12.0258 16.424 12.7998 17.216 14.2578 17.216ZM24.5959 17V11.24C24.5959 8.9 22.9039 8.09 20.9779 8.09C19.5919 8.09 18.3319 8.54 17.3239 9.494L18.0979 10.808C18.8539 10.07 19.6999 9.71 20.6719 9.71C21.8779 9.71 22.7059 10.322 22.7059 11.33V12.626C22.0759 11.888 21.0679 11.51 19.8979 11.51C18.4759 11.51 16.8739 12.338 16.8739 14.336C16.8739 16.262 18.4759 17.216 19.8979 17.216C21.0499 17.216 22.0579 16.802 22.7059 16.064V17H24.5959ZM20.6359 15.92C19.5739 15.92 18.7819 15.308 18.7819 14.372C18.7819 13.418 19.5739 12.806 20.6359 12.806C21.4639 12.806 22.2739 13.112 22.7059 13.706V15.02C22.2739 15.614 21.4639 15.92 20.6359 15.92ZM28.9363 17V11.078C29.3143 10.466 30.3763 9.926 31.1683 9.926C31.4023 9.926 31.6003 9.944 31.7623 9.98V8.108C30.6283 8.108 29.5843 8.756 28.9363 9.584V8.306H27.0463V17H28.9363ZM35.8965 17.216C36.7785 17.216 37.3365 16.982 37.6785 16.658L37.2285 15.236C37.0845 15.398 36.7425 15.542 36.3825 15.542C35.8425 15.542 35.5545 15.11 35.5545 14.516V9.962H37.3185V8.306H35.5545V5.93H33.6645V8.306H32.2245V9.962H33.6645V14.984C33.6645 16.424 34.4385 17.216 35.8965 17.216ZM39.9705 7.244C40.6185 7.244 41.1405 6.722 41.1405 6.074C41.1405 5.426 40.6185 4.904 39.9705 4.904C39.3405 4.904 38.8005 5.426 38.8005 6.074C38.8005 6.722 39.3405 7.244 39.9705 7.244ZM40.9245 17V8.306H39.0345V17H40.9245ZM51.1343 17V10.88C51.1343 9.098 50.1983 8.09 48.3263 8.09C46.9583 8.09 45.8423 8.81 45.2663 9.494V8.306H43.3763V17H45.2663V10.934C45.6983 10.34 46.5263 9.764 47.4983 9.764C48.5603 9.764 49.2443 10.214 49.2443 11.564V17H51.1343ZM57.1172 20.528C59.2592 20.528 61.5812 19.682 61.5812 16.55V8.306H59.6912V9.512C58.9892 8.594 57.9992 8.09 56.9012 8.09C54.6692 8.09 53.0492 9.746 53.0492 12.554C53.0492 15.416 54.6872 17.018 56.9012 17.018C58.0352 17.018 59.0252 16.442 59.6912 15.578V16.622C59.6912 18.404 58.3592 18.98 57.1172 18.98C55.9652 18.98 55.0652 18.674 54.3632 17.864L53.4812 19.232C54.5432 20.204 55.6412 20.528 57.1172 20.528ZM57.4592 15.344C55.9652 15.344 55.0112 14.228 55.0112 12.554C55.0112 10.88 55.9652 9.764 57.4592 9.764C58.3412 9.764 59.2772 10.286 59.6912 10.934V14.174C59.2772 14.822 58.3412 15.344 57.4592 15.344ZM75.8537 17V11.24C75.8537 8.9 74.1617 8.09 72.2357 8.09C70.8497 8.09 69.5897 8.54 68.5817 9.494L69.3557 10.808C70.1117 10.07 70.9577 9.71 71.9297 9.71C73.1357 9.71 73.9637 10.322 73.9637 11.33V12.626C73.3337 11.888 72.3257 11.51 71.1557 11.51C69.7337 11.51 68.1317 12.338 68.1317 14.336C68.1317 16.262 69.7337 17.216 71.1557 17.216C72.3077 17.216 73.3157 16.802 73.9637 16.064V17H75.8537ZM71.8937 15.92C70.8317 15.92 70.0397 15.308 70.0397 14.372C70.0397 13.418 70.8317 12.806 71.8937 12.806C72.7217 12.806 73.5317 13.112 73.9637 13.706V15.02C73.5317 15.614 72.7217 15.92 71.8937 15.92ZM80.9141 17.216C81.7961 17.216 82.3541 16.982 82.6961 16.658L82.2461 15.236C82.1021 15.398 81.7601 15.542 81.4001 15.542C80.8601 15.542 80.5721 15.11 80.5721 14.516V9.962H82.3361V8.306H80.5721V5.93H78.6821V8.306H77.2421V9.962H78.6821V14.984C78.6821 16.424 79.4561 17.216 80.9141 17.216ZM92.2752 18.8H93.7152V17.18C96.4152 16.946 97.6032 15.344 97.6032 13.508C97.6032 11.096 95.5872 10.394 93.7152 9.89V6.794C94.5972 6.974 95.4432 7.388 96.1272 8.054L97.3332 6.488C96.3972 5.588 95.1732 5.03 93.7152 4.868V3.176H92.2752V4.85C89.9532 5.048 88.4592 6.488 88.4592 8.324C88.4592 10.682 90.4212 11.348 92.2752 11.816V15.29C90.9612 15.092 89.9352 14.426 89.2512 13.688L88.0812 15.308C89.0172 16.334 90.4032 17.036 92.2752 17.18V18.8ZM95.4612 13.706C95.4612 14.39 94.9572 15.11 93.7152 15.308V12.194C94.7052 12.5 95.4612 12.896 95.4612 13.706ZM90.6192 8.18C90.6192 7.388 91.2492 6.812 92.2752 6.704V9.512C91.3212 9.242 90.6192 8.882 90.6192 8.18ZM103.822 17.216C106.504 17.216 108.394 15.65 108.394 13.148C108.394 10.7 106.576 9.278 104.56 9.278C103.408 9.278 102.418 9.746 101.842 10.322V6.848H107.602V4.994H99.7356V11.708L101.23 12.14C101.986 11.42 102.832 11.096 103.858 11.096C105.334 11.096 106.27 11.942 106.27 13.238C106.27 14.408 105.316 15.344 103.804 15.344C102.454 15.344 101.374 14.84 100.564 13.922L99.3576 15.362C100.33 16.514 101.752 17.216 103.822 17.216ZM114.615 17.216C117.297 17.216 119.187 15.65 119.187 13.148C119.187 10.7 117.369 9.278 115.353 9.278C114.201 9.278 113.211 9.746 112.635 10.322V6.848H118.395V4.994H110.529V11.708L112.023 12.14C112.779 11.42 113.625 11.096 114.651 11.096C116.127 11.096 117.063 11.942 117.063 13.238C117.063 14.408 116.109 15.344 114.597 15.344C113.247 15.344 112.167 14.84 111.357 13.922L110.151 15.362C111.123 16.514 112.545 17.216 114.615 17.216ZM121.34 17.36L125.606 4.634H124.202L119.936 17.36H121.34ZM139.383 17V10.718C139.383 8.954 138.483 8.09 136.881 8.09C135.585 8.09 134.433 8.9 133.929 9.692C133.641 8.738 132.849 8.09 131.553 8.09C130.239 8.09 129.087 8.954 128.727 9.494V8.306H126.837V17H128.727V10.934C129.123 10.358 129.897 9.764 130.725 9.764C131.751 9.764 132.165 10.394 132.165 11.33V17H134.055V10.916C134.433 10.358 135.225 9.764 136.071 9.764C137.079 9.764 137.493 10.394 137.493 11.33V17H139.383ZM145.755 17.216C148.545 17.216 150.237 15.146 150.237 12.644C150.237 10.16 148.545 8.09 145.755 8.09C143.001 8.09 141.291 10.16 141.291 12.644C141.291 15.146 143.001 17.216 145.755 17.216ZM145.755 15.542C144.153 15.542 143.253 14.192 143.253 12.644C143.253 11.114 144.153 9.764 145.755 9.764C147.375 9.764 148.275 11.114 148.275 12.644C148.275 14.192 147.375 15.542 145.755 15.542ZM166.331 17L169.031 8.306H167.069L165.233 14.624L163.163 8.306H161.507L159.437 14.624L157.601 8.306H155.639L158.339 17H160.319L162.335 10.628L164.351 17H166.331ZM171.279 7.244C171.927 7.244 172.449 6.722 172.449 6.074C172.449 5.426 171.927 4.904 171.279 4.904C170.649 4.904 170.109 5.426 170.109 6.074C170.109 6.722 170.649 7.244 171.279 7.244ZM172.233 17V8.306H170.343V17H172.233ZM177.295 17.216C178.177 17.216 178.735 16.982 179.077 16.658L178.627 15.236C178.483 15.398 178.141 15.542 177.781 15.542C177.241 15.542 176.953 15.11 176.953 14.516V9.962H178.717V8.306H176.953V5.93H175.063V8.306H173.623V9.962H175.063V14.984C175.063 16.424 175.837 17.216 177.295 17.216ZM188.209 17V10.844C188.209 9.062 187.273 8.09 185.401 8.09C184.033 8.09 182.899 8.81 182.323 9.494V4.994H180.433V17H182.323V10.934C182.773 10.34 183.601 9.764 184.555 9.764C185.617 9.764 186.319 10.178 186.319 11.528V17H188.209Z" fill="#E31E24"/>
<path d="M214.751 17.198C215.435 17.198 216.011 16.622 216.011 15.938C216.011 15.254 215.435 14.678 214.751 14.678C214.067 14.678 213.491 15.254 213.491 15.938C213.491 16.622 214.067 17.198 214.751 17.198Z" fill="black"/>
<path d="M224.974 17V12.518H228.142C230.644 12.518 232.066 10.79 232.066 8.756C232.066 6.722 230.662 4.994 228.142 4.994H222.868V17H224.974ZM227.854 10.664H224.974V6.848H227.854C229.042 6.848 229.906 7.604 229.906 8.756C229.906 9.908 229.042 10.664 227.854 10.664ZM235.655 17V11.078C236.033 10.466 237.095 9.926 237.887 9.926C238.121 9.926 238.319 9.944 238.481 9.98V8.108C237.347 8.108 236.303 8.756 235.655 9.584V8.306H233.765V17H235.655ZM244.019 17.216C245.405 17.216 246.683 16.784 247.547 15.956L246.683 14.714C246.071 15.326 245.063 15.668 244.217 15.668C242.579 15.668 241.589 14.588 241.445 13.274H248.159V12.824C248.159 10.088 246.485 8.09 243.875 8.09C241.301 8.09 239.465 10.124 239.465 12.644C239.465 15.398 241.409 17.216 244.019 17.216ZM246.323 11.942H241.427C241.517 10.88 242.255 9.638 243.875 9.638C245.585 9.638 246.287 10.916 246.323 11.942ZM253.859 15.542C252.365 15.542 251.411 14.336 251.411 12.644C251.411 10.97 252.365 9.764 253.859 9.764C254.741 9.764 255.677 10.286 256.091 10.934V14.372C255.677 15.002 254.741 15.542 253.859 15.542ZM253.301 17.216C254.399 17.216 255.389 16.73 256.091 15.794V20.312H257.981V8.306H256.091V9.494C255.443 8.63 254.435 8.09 253.301 8.09C251.051 8.09 249.449 9.782 249.449 12.644C249.449 15.506 251.051 17.216 253.301 17.216ZM268.189 17V8.306H266.299V14.408C265.849 15.002 265.021 15.542 264.067 15.542C263.005 15.542 262.321 15.128 262.321 13.778V8.306H260.431V14.462C260.431 16.244 261.349 17.216 263.221 17.216C264.589 17.216 265.669 16.55 266.299 15.848V17H268.189ZM277.844 17V11.24C277.844 8.9 276.152 8.09 274.226 8.09C272.84 8.09 271.58 8.54 270.572 9.494L271.346 10.808C272.102 10.07 272.948 9.71 273.92 9.71C275.126 9.71 275.954 10.322 275.954 11.33V12.626C275.324 11.888 274.316 11.51 273.146 11.51C271.724 11.51 270.122 12.338 270.122 14.336C270.122 16.262 271.724 17.216 273.146 17.216C274.298 17.216 275.306 16.802 275.954 16.064V17H277.844ZM273.884 15.92C272.822 15.92 272.03 15.308 272.03 14.372C272.03 13.418 272.822 12.806 273.884 12.806C274.712 12.806 275.522 13.112 275.954 13.706V15.02C275.522 15.614 274.712 15.92 273.884 15.92ZM282.184 17V4.994H280.294V17H282.184ZM285.572 7.244C286.22 7.244 286.742 6.722 286.742 6.074C286.742 5.426 286.22 4.904 285.572 4.904C284.942 4.904 284.402 5.426 284.402 6.074C284.402 6.722 284.942 7.244 285.572 7.244ZM286.526 17V8.306H284.636V17H286.526ZM291.318 17V9.962H293.082V8.306H291.318V7.82C291.318 6.848 291.786 6.362 292.524 6.362C292.956 6.362 293.28 6.506 293.532 6.74L294.27 5.57C293.73 5.012 292.956 4.814 292.182 4.814C290.526 4.814 289.428 5.93 289.428 7.82V8.306H287.988V9.962H289.428V17H291.318ZM294.137 20.402C294.407 20.474 294.929 20.528 295.199 20.528C296.549 20.51 297.593 20.042 298.187 18.566L302.381 8.306H300.347L297.809 14.822L295.271 8.306H293.255L296.819 17.108L296.387 18.098C296.135 18.674 295.739 18.854 295.145 18.854C294.929 18.854 294.623 18.8 294.425 18.71L294.137 20.402ZM315.949 17V10.88C315.949 9.098 315.013 8.09 313.141 8.09C311.773 8.09 310.657 8.81 310.081 9.494V8.306H308.191V17H310.081V10.934C310.513 10.34 311.341 9.764 312.313 9.764C313.375 9.764 314.059 10.214 314.059 11.564V17H315.949ZM322.328 17.216C325.118 17.216 326.81 15.146 326.81 12.644C326.81 10.16 325.118 8.09 322.328 8.09C319.574 8.09 317.864 10.16 317.864 12.644C317.864 15.146 319.574 17.216 322.328 17.216ZM322.328 15.542C320.726 15.542 319.826 14.192 319.826 12.644C319.826 11.114 320.726 9.764 322.328 9.764C323.948 9.764 324.848 11.114 324.848 12.644C324.848 14.192 323.948 15.542 322.328 15.542ZM338.28 17L340.98 8.306H339.018L337.182 14.624L335.112 8.306H333.456L331.386 14.624L329.55 8.306H327.588L330.288 17H332.268L334.284 10.628L336.3 17H338.28Z" fill="#6ACD68"/>
<g clip-path="url(#clip0_24501_2142)">
<path d="M195.78 15.7687C195.105 14.693 194.721 13.4467 194.668 12.1619C194.616 10.8771 194.898 9.6015 195.484 8.47016C196.07 7.33881 196.939 6.39382 197.997 5.73522C199.056 5.07661 200.266 4.7289 201.499 4.7289C202.731 4.7289 203.941 5.07661 205 5.73522C206.059 6.39382 206.927 7.33881 207.513 8.47016C208.099 9.6015 208.381 10.8771 208.329 12.1619C208.277 13.4467 207.893 14.693 207.217 15.7687H209.131C209.767 14.4168 210.062 12.9182 209.989 11.4144C209.916 9.91049 209.477 8.45079 208.714 7.17288C207.95 5.89497 206.887 4.84094 205.625 4.11016C204.363 3.37938 202.943 2.99591 201.5 2.99591C200.057 2.99591 198.637 3.37938 197.375 4.11016C196.113 4.84094 195.05 5.89497 194.286 7.17288C193.523 8.45079 193.084 9.91049 193.011 11.4144C192.938 12.9182 193.233 14.4168 193.869 15.7687H195.78Z" fill="#4A4AF4"/>
<path d="M201.614 7.65344C200.369 7.65344 198.936 8.26624 198.158 8.91286L198.868 10.4726C199.491 9.87737 200.5 9.36874 201.409 9.36874C202.274 9.36874 202.75 9.66905 202.75 10.2778C202.75 10.6836 202.434 10.9163 201.836 10.9731C199.594 11.1882 197.851 11.92 197.851 13.7151C197.851 15.1396 198.835 16 200.455 16C200.942 16.0006 201.42 15.866 201.841 15.61C202.261 15.3539 202.609 14.9856 202.847 14.543V15.7673H204.868V10.6349C204.868 8.51515 203.454 7.65885 201.614 7.65885V7.65344ZM201.024 14.3536C200.376 14.3536 200.011 14.0615 200.011 13.5826C200.011 12.5815 201.178 12.3407 202.709 12.3407C202.709 13.3878 202.037 14.3536 201.023 14.3536H201.024Z" fill="#060809"/>
</g>
<defs>
<clipPath id="clip0_24501_2142">
<rect width="17" height="13" fill="white" transform="translate(193 3)"/>
</clipPath>
</defs>
</svg>
