<svg width="488" height="278" viewBox="0 0 488 278" fill="none" xmlns="http://www.w3.org/2000/svg">
<rect width="488" height="278" fill="#C4C4C4"/>
<g clip-path="url(#clip0_24501_2143)">
<path d="M265.751 137.566L236.417 117.566C236.008 117.288 235.48 117.258 235.043 117.488C234.607 117.719 234.333 118.172 234.333 118.667V158.667C234.333 159.162 234.607 159.615 235.044 159.846C235.239 159.95 235.453 160 235.667 160C235.929 160 236.192 159.922 236.417 159.768L265.751 139.768C266.115 139.52 266.333 139.108 266.333 138.667C266.333 138.226 266.115 137.814 265.751 137.566ZM237 156.143V121.191L262.633 138.667L237 156.143Z" fill="white"/>
<path d="M245 98.6671C222.944 98.6671 205 116.611 205 138.667C205 160.723 222.944 178.667 245 178.667C267.056 178.667 285 160.723 285 138.667C285 116.611 267.056 98.6671 245 98.6671ZM245 176C224.415 176 207.667 159.252 207.667 138.667C207.667 118.082 224.415 101.334 245 101.334C265.585 101.334 282.333 118.082 282.333 138.667C282.333 159.252 265.585 176 245 176Z" fill="white"/>
</g>
<path d="M192.676 206.667V193.327H191.016V199.067H183.216V193.327H181.556V206.667H183.216V200.547H191.016V206.667H192.676ZM200.094 206.907C201.674 206.907 202.974 206.387 203.934 205.427L203.214 204.447C202.454 205.227 201.334 205.667 200.234 205.667C198.154 205.667 196.874 204.147 196.754 202.327H204.574V201.947C204.574 199.047 202.854 196.767 199.934 196.767C197.174 196.767 195.174 199.027 195.174 201.827C195.174 204.847 197.234 206.907 200.094 206.907ZM203.094 201.227H196.754C196.834 199.747 197.854 198.007 199.914 198.007C202.114 198.007 203.074 199.787 203.094 201.227ZM210.264 206.667V198.327H213.084V197.007H205.964V198.327H208.764V206.667H210.264ZM228.247 206.667V197.007H220.207V206.667H221.707V198.327H226.747V206.667H228.247ZM235.602 206.907C237.182 206.907 238.482 206.387 239.442 205.427L238.722 204.447C237.962 205.227 236.842 205.667 235.742 205.667C233.662 205.667 232.382 204.147 232.262 202.327H240.082V201.947C240.082 199.047 238.362 196.767 235.442 196.767C232.682 196.767 230.682 199.027 230.682 201.827C230.682 204.847 232.742 206.907 235.602 206.907ZM238.602 201.227H232.262C232.342 199.747 233.362 198.007 235.422 198.007C237.622 198.007 238.582 199.787 238.602 201.227ZM247.272 206.907C249.812 206.907 251.572 204.947 251.572 201.827C251.572 198.687 249.812 196.767 247.272 196.767C245.912 196.767 244.712 197.467 244.012 198.447V197.007H242.512V210.347H244.012V205.207C244.792 206.287 245.952 206.907 247.272 206.907ZM246.892 205.567C245.712 205.567 244.532 204.847 244.012 204.007V199.647C244.532 198.807 245.712 198.107 246.892 198.107C248.832 198.107 249.992 199.687 249.992 201.827C249.992 203.967 248.832 205.567 246.892 205.567ZM258.317 206.907C259.897 206.907 261.197 206.387 262.157 205.427L261.437 204.447C260.677 205.227 259.557 205.667 258.457 205.667C256.377 205.667 255.097 204.147 254.977 202.327H262.797V201.947C262.797 199.047 261.077 196.767 258.157 196.767C255.397 196.767 253.397 199.027 253.397 201.827C253.397 204.847 255.457 206.907 258.317 206.907ZM261.317 201.227H254.977C255.057 199.747 256.077 198.007 258.137 198.007C260.337 198.007 261.297 199.787 261.317 201.227ZM270.647 206.667C272.427 206.667 273.467 205.607 273.467 204.047C273.467 202.947 272.687 201.927 271.707 201.687C272.527 201.427 273.267 200.647 273.267 199.487C273.267 198.027 272.247 197.007 270.547 197.007H265.227V206.667H270.647ZM270.347 205.347H266.727V202.367H270.347C271.367 202.367 271.907 203.087 271.907 203.867C271.907 204.787 271.307 205.347 270.347 205.347ZM270.287 201.047H266.727V198.327H270.287C271.207 198.327 271.727 198.867 271.727 199.707C271.727 200.467 271.227 201.047 270.287 201.047ZM280.521 206.907C283.461 206.907 285.301 204.627 285.301 201.827C285.301 199.027 283.461 196.767 280.521 196.767C277.581 196.767 275.741 199.027 275.741 201.827C275.741 204.627 277.581 206.907 280.521 206.907ZM280.521 205.567C278.461 205.567 277.301 203.807 277.301 201.827C277.301 199.867 278.461 198.107 280.521 198.107C282.581 198.107 283.721 199.867 283.721 201.827C283.721 203.807 282.581 205.567 280.521 205.567ZM286.606 209.127H288.106V206.667H295.406V209.127H296.906V205.347H295.786V197.007H289.066L288.446 201.767C288.066 204.627 287.506 205.267 286.606 205.427V209.127ZM290.386 198.327H294.286V205.347H288.546C289.246 204.787 289.706 203.767 289.946 201.947L290.386 198.327ZM306.497 206.667V200.027C306.497 197.687 304.797 196.767 302.757 196.767C301.177 196.767 299.937 197.287 298.897 198.367L299.597 199.407C300.457 198.487 301.397 198.067 302.557 198.067C303.957 198.067 304.997 198.807 304.997 200.107V201.847C304.217 200.947 303.117 200.527 301.797 200.527C300.157 200.527 298.417 201.547 298.417 203.707C298.417 205.807 300.157 206.907 301.797 206.907C303.097 206.907 304.197 206.447 304.997 205.567V206.667H306.497ZM302.337 205.827C300.937 205.827 299.957 204.947 299.957 203.727C299.957 202.487 300.937 201.607 302.337 201.607C303.397 201.607 304.417 202.007 304.997 202.807V204.627C304.417 205.427 303.397 205.827 302.337 205.827Z" fill="white"/>
<path d="M179.996 209.327H307.997V209.727H179.996V209.327Z" fill="white"/>
<defs>
<clipPath id="clip0_24501_2143">
<rect width="80" height="80" fill="white" transform="translate(205 98.6671)"/>
</clipPath>
</defs>
</svg>
