<svg width="135" height="40" viewBox="0 0 135 40" fill="none" xmlns="http://www.w3.org/2000/svg">
<path d="M130 40H5C2.25 40 0 37.75 0 35V5C0 2.25 2.25 0 5 0H130C132.75 0 135 2.25 135 5V35C135 37.75 132.75 40 130 40Z" fill="black"/>
<path d="M68.1398 21.7498C65.7898 21.7498 63.8698 23.5398 63.8698 25.9998C63.8698 28.4498 65.7898 30.2498 68.1398 30.2498C70.4898 30.2498 72.4098 28.4498 72.4098 25.9998C72.3998 23.5398 70.4898 21.7498 68.1398 21.7498ZM68.1398 28.5798C66.8498 28.5798 65.7398 27.5198 65.7398 25.9998C65.7398 24.4698 66.8498 23.4198 68.1398 23.4198C69.4298 23.4198 70.5398 24.4698 70.5398 25.9998C70.5398 27.5198 69.4198 28.5798 68.1398 28.5798ZM58.8198 21.7498C56.4698 21.7498 54.5498 23.5398 54.5498 25.9998C54.5498 28.4498 56.4698 30.2498 58.8198 30.2498C61.1698 30.2498 63.0898 28.4498 63.0898 25.9998C63.0898 23.5398 61.1698 21.7498 58.8198 21.7498ZM58.8198 28.5798C57.5298 28.5798 56.4198 27.5198 56.4198 25.9998C56.4198 24.4698 57.5298 23.4198 58.8198 23.4198C60.1098 23.4198 61.2198 24.4698 61.2198 25.9998C61.2198 27.5198 60.1098 28.5798 58.8198 28.5798ZM47.7398 23.0598V24.8598H52.0598C51.9298 25.8698 51.5898 26.6198 51.0798 27.1298C50.4498 27.7598 49.4698 28.4498 47.7398 28.4498C45.0798 28.4498 42.9998 26.3098 42.9998 23.6498C42.9998 20.9898 45.0798 18.8498 47.7398 18.8498C49.1698 18.8498 50.2198 19.4098 50.9898 20.1398L52.2598 18.8698C51.1798 17.8398 49.7498 17.0498 47.7298 17.0498C44.0898 17.0498 41.0298 20.0098 41.0298 23.6598C41.0298 27.2998 44.0898 30.2598 47.7298 30.2598C49.6898 30.2598 51.1798 29.6098 52.3398 28.4098C53.5298 27.2198 53.8998 25.5398 53.8998 24.1898C53.8998 23.7698 53.8698 23.3798 53.7998 23.0598H47.7398ZM93.0498 24.4598C92.6998 23.5098 91.6198 21.7498 89.4098 21.7498C87.2198 21.7498 85.3998 23.4698 85.3998 25.9998C85.3998 28.3798 87.2098 30.2498 89.6198 30.2498C91.5698 30.2498 92.6998 29.0598 93.1598 28.3698L91.7098 27.3998C91.2298 28.1098 90.5698 28.5798 89.6198 28.5798C88.6698 28.5798 87.9898 28.1498 87.5598 27.2898L93.2498 24.9398L93.0498 24.4598ZM87.2498 25.8798C87.1998 24.2398 88.5198 23.3998 89.4698 23.3998C90.2098 23.3998 90.8398 23.7698 91.0498 24.2998L87.2498 25.8798ZM82.6298 29.9998H84.4998V17.4998H82.6298V29.9998ZM79.5698 22.6998H79.4998C79.0798 22.1998 78.2698 21.7498 77.2598 21.7498C75.1298 21.7498 73.1798 23.6198 73.1798 26.0198C73.1798 28.3998 75.1298 30.2598 77.2598 30.2598C78.2798 30.2598 79.0798 29.8098 79.4998 29.2898H79.5598V29.8998C79.5598 31.5298 78.6898 32.3998 77.2898 32.3998C76.1498 32.3998 75.4398 31.5798 75.1498 30.8898L73.5198 31.5698C73.9898 32.6998 75.2298 34.0798 77.2898 34.0798C79.4798 34.0798 81.3298 32.7898 81.3298 29.6498V22.0098H79.5598L79.5698 22.6998ZM77.4198 28.5798C76.1298 28.5798 75.0498 27.4998 75.0498 26.0198C75.0498 24.5198 76.1298 23.4298 77.4198 23.4298C78.6898 23.4298 79.6898 24.5198 79.6898 26.0198C79.6998 27.4998 78.6998 28.5798 77.4198 28.5798ZM101.81 17.4998H97.3398V29.9998H99.2098V25.2598H101.81C103.88 25.2598 105.91 23.7598 105.91 21.3798C105.91 18.9998 103.87 17.4998 101.81 17.4998ZM101.85 23.5198H99.1998V19.2398H101.85C103.25 19.2398 104.04 20.3998 104.04 21.3798C104.04 22.3498 103.25 23.5198 101.85 23.5198ZM113.39 21.7298C112.04 21.7298 110.64 22.3298 110.06 23.6398L111.72 24.3298C112.07 23.6398 112.73 23.4098 113.43 23.4098C114.39 23.4098 115.38 23.9898 115.39 25.0198V25.1498C115.05 24.9598 114.33 24.6698 113.44 24.6698C111.65 24.6698 109.84 25.6498 109.84 27.4798C109.84 29.1498 111.3 30.2298 112.94 30.2298C114.19 30.2298 114.89 29.6698 115.32 29.0098H115.38V29.9698H117.18V25.1798C117.18 22.9698 115.52 21.7298 113.39 21.7298ZM113.16 28.5798C112.55 28.5798 111.7 28.2698 111.7 27.5198C111.7 26.5598 112.76 26.1898 113.68 26.1898C114.5 26.1898 114.89 26.3698 115.38 26.6098C115.23 27.7598 114.24 28.5798 113.16 28.5798ZM123.74 21.9998L121.6 27.4198H121.54L119.32 21.9998H117.31L120.64 29.5798L118.74 33.7898H120.69L125.82 21.9998H123.74ZM106.94 29.9998H108.8V17.4998H106.94V29.9998Z" fill="white"/>
<path d="M10.44 7.54094C10.15 7.85094 9.97998 8.33094 9.97998 8.94094V31.0609C9.97998 31.6809 10.15 32.1609 10.44 32.4709L10.51 32.5409L22.9 20.1509V20.0009V19.8509L10.51 7.46094L10.44 7.54094Z" fill="url(#paint0_linear_24505_2151)"/>
<path d="M27.0304 24.2807L22.9004 20.1507V20.0007V19.8507L27.0304 15.7207L27.1204 15.7707L32.0104 18.5507C33.4104 19.3407 33.4104 20.6407 32.0104 21.4407L27.1204 24.2207L27.0304 24.2807Z" fill="url(#paint1_linear_24505_2151)"/>
<path d="M27.1204 24.22L22.9004 20L10.4404 32.46C10.9004 32.95 11.6604 33.01 12.5204 32.52L27.1204 24.22Z" fill="url(#paint2_linear_24505_2151)"/>
<path d="M27.1202 15.7805L12.5102 7.48048C11.6502 6.99048 10.8902 7.05048 10.4302 7.54048L22.9002 20.0005L27.1202 15.7805Z" fill="url(#paint3_linear_24505_2151)"/>
<path opacity="0.2" d="M27.0302 24.1309L12.5202 32.3809C11.7102 32.8409 10.9802 32.8109 10.5202 32.3909L10.4502 32.4609L10.5202 32.5309C10.9902 32.9509 11.7102 32.9809 12.5202 32.5209L27.1302 24.2209L27.0302 24.1309Z" fill="black"/>
<path opacity="0.12" d="M10.44 32.3211C10.15 32.0111 9.97998 31.5311 9.97998 30.9111V31.0611C9.97998 31.6811 10.15 32.1611 10.44 32.4711L10.51 32.4011L10.44 32.3211Z" fill="black"/>
<path opacity="0.12" d="M32.0203 21.3L27.0303 24.13L27.1203 24.22L32.0103 21.44C32.7103 21.04 33.0603 20.52 33.0603 20C33.0003 20.48 32.6503 20.94 32.0203 21.3Z" fill="black"/>
<path opacity="0.25" d="M12.5102 7.62043L32.0102 18.7004C32.6402 19.0604 33.0002 19.5204 33.0602 20.0004C33.0602 19.4804 32.7102 18.9504 32.0102 18.5604L12.5102 7.48043C11.1102 6.69043 9.97021 7.35043 9.97021 8.95043V9.10043C9.97021 7.49043 11.1202 6.83043 12.5102 7.62043Z" fill="white"/>
<path d="M42.1101 14.27H41.3701V12.26H41.9601C42.4801 11.81 42.7301 11.05 42.7201 9.96V7H46.7301V12.26H47.4001V14.27H46.6601V13H42.1101V14.27ZM43.5001 9.97C43.5101 10.92 43.3201 11.69 42.9301 12.27H45.9601V7.74H43.5001V9.97Z" fill="white" stroke="white" stroke-width="0.2" stroke-miterlimit="10"/>
<path d="M53.4201 12.2294C52.8301 12.8394 52.1001 13.1394 51.2201 13.1394C50.3401 13.1394 49.6101 12.8394 49.0201 12.2294C48.4301 11.6194 48.1401 10.8794 48.1401 9.99937C48.1401 9.11937 48.4301 8.37937 49.0201 7.76937C49.6101 7.15937 50.3401 6.85938 51.2201 6.85938C52.0901 6.85938 52.8201 7.16937 53.4201 7.76937C54.0001 8.38937 54.3001 9.12937 54.3001 9.99937C54.3001 10.8794 54.0001 11.6194 53.4201 12.2294ZM49.5801 11.7194C50.0201 12.1694 50.5701 12.3894 51.2101 12.3894C51.8501 12.3894 52.4001 12.1594 52.8401 11.7194C53.2801 11.2694 53.5101 10.6994 53.5101 9.99937C53.5101 9.29937 53.2901 8.72938 52.8401 8.27938C52.4001 7.82938 51.8501 7.60938 51.2101 7.60938C50.5701 7.60938 50.0201 7.83938 49.5801 8.27938C49.1401 8.72938 48.9101 9.29937 48.9101 9.99937C48.9201 10.6994 49.1401 11.2694 49.5801 11.7194Z" fill="white" stroke="white" stroke-width="0.2" stroke-miterlimit="10"/>
<path d="M58.1801 13.1296C57.3001 13.1296 56.5601 12.8296 55.9601 12.2296C55.3601 11.6296 55.0601 10.8896 55.0601 9.98961C55.0601 9.08961 55.3601 8.34961 55.9601 7.74961C56.5601 7.14961 57.3001 6.84961 58.1801 6.84961C59.0801 6.84961 59.8201 7.17961 60.3801 7.82961L59.8401 8.34961C59.4301 7.83961 58.8801 7.58961 58.1701 7.58961C57.5201 7.58961 56.9601 7.80961 56.5101 8.24961C56.0601 8.68961 55.8401 9.26961 55.8401 9.97961C55.8401 10.6896 56.0701 11.2696 56.5101 11.7096C56.9601 12.1496 57.5101 12.3696 58.1701 12.3696C58.8901 12.3696 59.5001 12.0796 60.0101 11.4996L60.5501 12.0396C60.2801 12.3696 59.9301 12.6296 59.5201 12.8196C59.1201 13.0396 58.6701 13.1296 58.1801 13.1296Z" fill="white" stroke="white" stroke-width="0.2" stroke-miterlimit="10"/>
<path d="M63.68 13H62.91V7.74H61.23V7H65.35V7.74H63.67V13H63.68Z" fill="white" stroke="white" stroke-width="0.2" stroke-miterlimit="10"/>
<path d="M70.6501 7L68.3801 12.06C68.0701 12.77 67.6001 13.13 66.9801 13.13C66.7901 13.13 66.6001 13.09 66.3801 13L66.5801 12.29C66.7101 12.36 66.8401 12.4 66.9801 12.4C67.1601 12.4 67.3001 12.36 67.4001 12.3C67.5001 12.23 67.5901 12.1 67.6701 11.92L67.8901 11.44L65.8701 7H66.7701L68.2501 10.44H68.2801L69.7401 7H70.6501Z" fill="white" stroke="white" stroke-width="0.2" stroke-miterlimit="10"/>
<path d="M71.52 13V7H75.86V13H75.09V7.74H72.29V13H71.52Z" fill="white" stroke="white" stroke-width="0.2" stroke-miterlimit="10"/>
<path d="M77.23 13V7H78V9.57H81V7H81.77V13H81V10.29H78V13H77.23Z" fill="white" stroke="white" stroke-width="0.2" stroke-miterlimit="10"/>
<path d="M88.0603 12.2294C87.4703 12.8394 86.7403 13.1394 85.8603 13.1394C84.9803 13.1394 84.2503 12.8394 83.6603 12.2294C83.0703 11.6194 82.7803 10.8794 82.7803 9.99937C82.7803 9.11937 83.0703 8.37937 83.6603 7.76937C84.2503 7.15937 84.9803 6.85938 85.8603 6.85938C86.7303 6.85938 87.4603 7.16937 88.0603 7.76937C88.6503 8.37937 88.9503 9.11937 88.9503 9.98937C88.9403 10.8794 88.6503 11.6194 88.0603 12.2294ZM84.2303 11.7194C84.6703 12.1694 85.2203 12.3894 85.8603 12.3894C86.5003 12.3894 87.0503 12.1594 87.4903 11.7194C87.9303 11.2694 88.1603 10.6994 88.1603 9.99937C88.1603 9.29937 87.9403 8.72938 87.4903 8.27938C87.0503 7.82938 86.5003 7.60938 85.8603 7.60938C85.2203 7.60938 84.6703 7.83938 84.2303 8.27938C83.7903 8.72938 83.5603 9.29937 83.5603 9.99937C83.5603 10.6994 83.7803 11.2694 84.2303 11.7194Z" fill="white" stroke="white" stroke-width="0.2" stroke-miterlimit="10"/>
<path d="M92.0903 13V7H94.2603C94.7303 7 95.1403 7.15 95.4803 7.46C95.8203 7.77 96.0003 8.16 96.0003 8.63C96.0003 8.92 95.9303 9.17 95.7803 9.38C95.6303 9.6 95.4303 9.76 95.1903 9.87V9.9C95.4903 10 95.7303 10.17 95.9203 10.42C96.1103 10.67 96.2103 10.95 96.2103 11.27C96.2103 11.76 96.0303 12.17 95.6703 12.49C95.3103 12.81 94.8803 12.98 94.3903 12.98H92.0903V13ZM92.8603 9.57H94.2603C94.5503 9.57 94.7803 9.47 94.9603 9.28C95.1403 9.09 95.2203 8.88 95.2203 8.65C95.2203 8.42 95.1403 8.21 94.9603 8.02C94.7903 7.83 94.5703 7.73 94.2903 7.73H92.8603V9.57ZM92.8603 12.26H94.4103C94.7103 12.26 94.9503 12.16 95.1303 11.95C95.3103 11.74 95.4103 11.52 95.4103 11.27C95.4103 11.02 95.3103 10.8 95.1203 10.6C94.9303 10.4 94.6803 10.29 94.3703 10.29H92.8503V12.26H92.8603Z" fill="white" stroke="white" stroke-width="0.2" stroke-miterlimit="10"/>
<defs>
<linearGradient id="paint0_linear_24505_2151" x1="21.8006" y1="8.71014" x2="5.01848" y2="25.4922" gradientUnits="userSpaceOnUse">
<stop stop-color="#00A0FF"/>
<stop offset="0.0066" stop-color="#00A1FF"/>
<stop offset="0.2601" stop-color="#00BEFF"/>
<stop offset="0.5122" stop-color="#00D2FF"/>
<stop offset="0.7604" stop-color="#00DFFF"/>
<stop offset="1" stop-color="#00E3FF"/>
</linearGradient>
<linearGradient id="paint1_linear_24505_2151" x1="33.8337" y1="20.0019" x2="9.63819" y2="20.0019" gradientUnits="userSpaceOnUse">
<stop stop-color="#FFE000"/>
<stop offset="0.4087" stop-color="#FFBD00"/>
<stop offset="0.7754" stop-color="#FFA500"/>
<stop offset="1" stop-color="#FF9C00"/>
</linearGradient>
<linearGradient id="paint2_linear_24505_2151" x1="24.8287" y1="22.2946" x2="2.06973" y2="45.0535" gradientUnits="userSpaceOnUse">
<stop stop-color="#FF3A44"/>
<stop offset="1" stop-color="#C31162"/>
</linearGradient>
<linearGradient id="paint3_linear_24505_2151" x1="7.29778" y1="0.177076" x2="17.4601" y2="10.3394" gradientUnits="userSpaceOnUse">
<stop stop-color="#32A071"/>
<stop offset="0.0685" stop-color="#2DA771"/>
<stop offset="0.4762" stop-color="#15CF74"/>
<stop offset="0.8009" stop-color="#06E775"/>
<stop offset="1" stop-color="#00F076"/>
</linearGradient>
</defs>
</svg>
